<svg width="196" height="196" viewBox="0 0 196 196" fill="none" xmlns="http://www.w3.org/2000/svg">
<rect width="196" height="196" rx="98" fill="white"/>
<path d="M108 43L88 63" stroke="#212529" stroke-width="3" stroke-linecap="round" stroke-linejoin="round"/>
<path d="M90 43H108V61" stroke="#212529" stroke-width="3" stroke-linecap="round" stroke-linejoin="round"/>
<path d="M49.4683 101.432H51.5323C52.2523 100.44 52.8043 99.4 53.1883 98.312C53.5883 97.208 53.8763 96.072 54.0523 94.904C54.2443 93.72 54.3563 92.504 54.3883 91.256C54.4203 89.992 54.4363 88.696 54.4363 87.368H64.6363V101.432H67.1083V108.44H64.2043V104H52.3723V108.44H49.4683V101.432ZM57.3403 89.96C57.2923 90.92 57.2363 91.904 57.1723 92.912C57.1083 93.92 56.9883 94.92 56.8123 95.912C56.6523 96.888 56.4203 97.848 56.1163 98.792C55.8123 99.72 55.3963 100.6 54.8683 101.432H61.6603V89.96H57.3403ZM73.7718 101.96C74.6678 101.96 75.3478 101.912 75.8118 101.816V98.6C75.6518 98.552 75.4198 98.504 75.1158 98.456C74.8118 98.408 74.4758 98.384 74.1078 98.384C73.7878 98.384 73.4598 98.408 73.1238 98.456C72.8038 98.504 72.5078 98.592 72.2358 98.72C71.9798 98.848 71.7718 99.032 71.6118 99.272C71.4518 99.496 71.3718 99.784 71.3718 100.136C71.3718 100.824 71.5878 101.304 72.0198 101.576C72.4518 101.832 73.0358 101.96 73.7718 101.96ZM73.5318 91.136C74.4918 91.136 75.2998 91.256 75.9558 91.496C76.6118 91.736 77.1318 92.072 77.5158 92.504C77.9158 92.936 78.1958 93.464 78.3558 94.088C78.5318 94.696 78.6198 95.368 78.6198 96.104V103.712C78.1718 103.808 77.4918 103.92 76.5798 104.048C75.6838 104.192 74.6678 104.264 73.5318 104.264C72.7798 104.264 72.0918 104.192 71.4678 104.048C70.8438 103.904 70.3078 103.672 69.8598 103.352C69.4278 103.032 69.0838 102.616 68.8278 102.104C68.5878 101.592 68.4678 100.96 68.4678 100.208C68.4678 99.488 68.6038 98.88 68.8758 98.384C69.1638 97.888 69.5478 97.488 70.0278 97.184C70.5078 96.864 71.0598 96.64 71.6838 96.512C72.3238 96.368 72.9878 96.296 73.6758 96.296C73.9958 96.296 74.3318 96.32 74.6838 96.368C75.0358 96.4 75.4118 96.464 75.8118 96.56V96.08C75.8118 95.744 75.7718 95.424 75.6918 95.12C75.6118 94.816 75.4678 94.552 75.2598 94.328C75.0678 94.088 74.8038 93.904 74.4678 93.776C74.1478 93.648 73.7398 93.584 73.2438 93.584C72.5718 93.584 71.9558 93.632 71.3958 93.728C70.8358 93.824 70.3798 93.936 70.0278 94.064L69.6678 91.712C70.0358 91.584 70.5718 91.456 71.2758 91.328C71.9798 91.2 72.7318 91.136 73.5318 91.136ZM87.1681 104.24C86.7041 104.24 86.2321 104.224 85.7521 104.192C85.2721 104.16 84.8081 104.12 84.3601 104.072C83.9281 104.024 83.5201 103.976 83.1361 103.928C82.7521 103.864 82.4321 103.8 82.1761 103.736V91.616C82.4321 91.552 82.7521 91.496 83.1361 91.448C83.5201 91.384 83.9281 91.336 84.3601 91.304C84.8081 91.256 85.2721 91.224 85.7521 91.208C86.2321 91.176 86.7041 91.16 87.1681 91.16C88.8641 91.16 90.1841 91.472 91.1281 92.096C92.0721 92.704 92.5441 93.56 92.5441 94.664C92.5441 95.24 92.4001 95.752 92.1121 96.2C91.8241 96.648 91.4481 96.984 90.9841 97.208C91.5601 97.432 92.0561 97.784 92.4721 98.264C92.8881 98.744 93.0961 99.424 93.0961 100.304C93.0961 101.568 92.6001 102.544 91.6081 103.232C90.6161 103.904 89.1361 104.24 87.1681 104.24ZM87.2401 96.488C87.9601 96.488 88.5521 96.384 89.0161 96.176C89.4961 95.968 89.7361 95.552 89.7361 94.928C89.7361 94.624 89.6561 94.376 89.4961 94.184C89.3521 93.992 89.1521 93.84 88.8961 93.728C88.6401 93.616 88.3441 93.544 88.0081 93.512C87.6721 93.464 87.3201 93.44 86.9521 93.44C86.6641 93.44 86.3281 93.448 85.9441 93.464C85.5761 93.48 85.2801 93.504 85.0561 93.536V96.488H87.2401ZM85.0561 101.84C85.2481 101.872 85.5601 101.904 85.9921 101.936C86.4401 101.952 86.8561 101.96 87.2401 101.96C88.1041 101.96 88.8161 101.84 89.3761 101.6C89.9521 101.36 90.2401 100.904 90.2401 100.232C90.2401 99.576 89.9761 99.128 89.4481 98.888C88.9361 98.632 88.2641 98.504 87.4321 98.504H85.0561V101.84ZM100.256 101.96C101.152 101.96 101.832 101.912 102.296 101.816V98.6C102.136 98.552 101.904 98.504 101.6 98.456C101.296 98.408 100.96 98.384 100.592 98.384C100.272 98.384 99.9442 98.408 99.6082 98.456C99.2882 98.504 98.9922 98.592 98.7202 98.72C98.4642 98.848 98.2562 99.032 98.0962 99.272C97.9362 99.496 97.8562 99.784 97.8562 100.136C97.8562 100.824 98.0722 101.304 98.5042 101.576C98.9362 101.832 99.5202 101.96 100.256 101.96ZM100.016 91.136C100.976 91.136 101.784 91.256 102.44 91.496C103.096 91.736 103.616 92.072 104 92.504C104.4 92.936 104.68 93.464 104.84 94.088C105.016 94.696 105.104 95.368 105.104 96.104V103.712C104.656 103.808 103.976 103.92 103.064 104.048C102.168 104.192 101.152 104.264 100.016 104.264C99.2642 104.264 98.5762 104.192 97.9522 104.048C97.3282 103.904 96.7922 103.672 96.3442 103.352C95.9122 103.032 95.5682 102.616 95.3122 102.104C95.0722 101.592 94.9522 100.96 94.9522 100.208C94.9522 99.488 95.0882 98.88 95.3602 98.384C95.6482 97.888 96.0322 97.488 96.5122 97.184C96.9922 96.864 97.5442 96.64 98.1682 96.512C98.8082 96.368 99.4722 96.296 100.16 96.296C100.48 96.296 100.816 96.32 101.168 96.368C101.52 96.4 101.896 96.464 102.296 96.56V96.08C102.296 95.744 102.256 95.424 102.176 95.12C102.096 94.816 101.952 94.552 101.744 94.328C101.552 94.088 101.288 93.904 100.952 93.776C100.632 93.648 100.224 93.584 99.7282 93.584C99.0562 93.584 98.4402 93.632 97.8802 93.728C97.3202 93.824 96.8642 93.936 96.5122 94.064L96.1522 91.712C96.5202 91.584 97.0562 91.456 97.7602 91.328C98.4642 91.2 99.2162 91.136 100.016 91.136ZM119.653 91.448V104H116.773C116.773 103.088 116.773 102.184 116.773 101.288C116.789 100.392 116.797 99.56 116.797 98.792C116.813 98.024 116.821 97.36 116.821 96.8C116.837 96.224 116.845 95.8 116.845 95.528C116.365 96.152 115.869 96.84 115.357 97.592C114.845 98.344 114.333 99.096 113.821 99.848C113.325 100.6 112.853 101.336 112.405 102.056C111.957 102.776 111.565 103.424 111.229 104H108.661V91.448H111.517C111.517 92.376 111.509 93.264 111.493 94.112C111.493 94.944 111.493 95.704 111.493 96.392C111.493 97.08 111.485 97.68 111.469 98.192C111.469 98.704 111.469 99.096 111.469 99.368C111.917 98.68 112.381 97.976 112.861 97.256C113.341 96.52 113.821 95.808 114.301 95.12C114.797 94.416 115.285 93.752 115.765 93.128C116.245 92.504 116.709 91.944 117.157 91.448H119.653ZM114.181 89.576C113.669 89.576 113.189 89.504 112.741 89.36C112.309 89.216 111.917 89.008 111.565 88.736C111.213 88.464 110.925 88.136 110.701 87.752C110.477 87.352 110.341 86.904 110.293 86.408L112.381 85.856C112.653 86.992 113.253 87.56 114.181 87.56C115.125 87.56 115.725 87 115.981 85.88L118.045 86.432C117.981 86.928 117.837 87.376 117.613 87.776C117.405 88.16 117.125 88.488 116.773 88.76C116.437 89.016 116.045 89.216 115.597 89.36C115.149 89.504 114.677 89.576 114.181 89.576ZM132.812 93.872H128.756V104H125.852V93.872H121.82V91.448H132.812V93.872ZM134.285 97.784C134.285 96.68 134.445 95.712 134.765 94.88C135.101 94.048 135.541 93.36 136.085 92.816C136.629 92.256 137.253 91.84 137.957 91.568C138.661 91.28 139.381 91.136 140.117 91.136C141.845 91.136 143.189 91.672 144.149 92.744C145.125 93.816 145.613 95.416 145.613 97.544C145.613 97.704 145.605 97.888 145.589 98.096C145.589 98.288 145.581 98.464 145.565 98.624H137.285C137.365 99.632 137.717 100.416 138.341 100.976C138.981 101.52 139.901 101.792 141.101 101.792C141.805 101.792 142.445 101.728 143.021 101.6C143.613 101.472 144.077 101.336 144.413 101.192L144.797 103.568C144.637 103.648 144.413 103.736 144.125 103.832C143.853 103.912 143.533 103.984 143.165 104.048C142.813 104.128 142.429 104.192 142.013 104.24C141.597 104.288 141.173 104.312 140.741 104.312C139.637 104.312 138.677 104.152 137.861 103.832C137.045 103.496 136.373 103.04 135.845 102.464C135.317 101.872 134.925 101.184 134.669 100.4C134.413 99.6 134.285 98.728 134.285 97.784ZM142.709 96.488C142.709 96.088 142.653 95.712 142.541 95.36C142.429 94.992 142.261 94.68 142.037 94.424C141.829 94.152 141.565 93.944 141.245 93.8C140.941 93.64 140.573 93.56 140.141 93.56C139.693 93.56 139.301 93.648 138.965 93.824C138.629 93.984 138.341 94.2 138.101 94.472C137.877 94.744 137.701 95.056 137.573 95.408C137.445 95.76 137.357 96.12 137.309 96.488H142.709ZM55.6786 120.448V133H52.7746V122.872H48.1426V133H45.2386V120.448H55.6786ZM70.7234 126.712C70.7234 127.704 70.5794 128.608 70.2914 129.424C70.0034 130.24 69.5954 130.936 69.0674 131.512C68.5394 132.088 67.8994 132.536 67.1474 132.856C66.4114 133.176 65.5954 133.336 64.6994 133.336C63.8034 133.336 62.9874 133.176 62.2514 132.856C61.5154 132.536 60.8834 132.088 60.3554 131.512C59.8274 130.936 59.4114 130.24 59.1074 129.424C58.8194 128.608 58.6754 127.704 58.6754 126.712C58.6754 125.72 58.8194 124.824 59.1074 124.024C59.4114 123.208 59.8274 122.512 60.3554 121.936C60.8994 121.36 61.5394 120.92 62.2754 120.616C63.0114 120.296 63.8194 120.136 64.6994 120.136C65.5794 120.136 66.3874 120.296 67.1234 120.616C67.8754 120.92 68.5154 121.36 69.0434 121.936C69.5714 122.512 69.9794 123.208 70.2674 124.024C70.5714 124.824 70.7234 125.72 70.7234 126.712ZM67.7474 126.712C67.7474 125.464 67.4754 124.48 66.9314 123.76C66.4034 123.024 65.6594 122.656 64.6994 122.656C63.7394 122.656 62.9874 123.024 62.4434 123.76C61.9154 124.48 61.6514 125.464 61.6514 126.712C61.6514 127.976 61.9154 128.976 62.4434 129.712C62.9874 130.448 63.7394 130.816 64.6994 130.816C65.6594 130.816 66.4034 130.448 66.9314 129.712C67.4754 128.976 67.7474 127.976 67.7474 126.712ZM75.8032 124.336C75.8032 125.104 76.0192 125.648 76.4512 125.968C76.8992 126.272 77.5072 126.424 78.2752 126.424C78.6432 126.424 79.0032 126.408 79.3552 126.376C79.7232 126.328 80.0432 126.272 80.3152 126.208V120.448H83.2192V133H80.3152V128.512C80.0272 128.56 79.6512 128.624 79.1872 128.704C78.7232 128.768 78.3072 128.8 77.9392 128.8C77.1872 128.8 76.4992 128.728 75.8752 128.584C75.2672 128.44 74.7392 128.2 74.2912 127.864C73.8432 127.512 73.4992 127.056 73.2592 126.496C73.0192 125.92 72.8992 125.208 72.8992 124.36V120.448H75.8032V124.336ZM97.4465 133H94.5425V127.744H89.8145V133H86.9105V120.448H89.8145V125.344H94.5425V120.448H97.4465V133ZM100.441 126.784C100.441 125.68 100.601 124.712 100.921 123.88C101.257 123.048 101.697 122.36 102.241 121.816C102.785 121.256 103.409 120.84 104.113 120.568C104.817 120.28 105.537 120.136 106.273 120.136C108.001 120.136 109.345 120.672 110.305 121.744C111.281 122.816 111.769 124.416 111.769 126.544C111.769 126.704 111.761 126.888 111.745 127.096C111.745 127.288 111.737 127.464 111.721 127.624H103.441C103.521 128.632 103.873 129.416 104.497 129.976C105.137 130.52 106.057 130.792 107.257 130.792C107.961 130.792 108.601 130.728 109.177 130.6C109.769 130.472 110.233 130.336 110.569 130.192L110.953 132.568C110.793 132.648 110.569 132.736 110.281 132.832C110.009 132.912 109.689 132.984 109.321 133.048C108.969 133.128 108.585 133.192 108.169 133.24C107.753 133.288 107.329 133.312 106.897 133.312C105.793 133.312 104.833 133.152 104.017 132.832C103.201 132.496 102.529 132.04 102.001 131.464C101.473 130.872 101.081 130.184 100.825 129.4C100.569 128.6 100.441 127.728 100.441 126.784ZM108.865 125.488C108.865 125.088 108.809 124.712 108.697 124.36C108.585 123.992 108.417 123.68 108.193 123.424C107.985 123.152 107.721 122.944 107.401 122.8C107.097 122.64 106.729 122.56 106.297 122.56C105.849 122.56 105.457 122.648 105.121 122.824C104.785 122.984 104.497 123.2 104.257 123.472C104.033 123.744 103.857 124.056 103.729 124.408C103.601 124.76 103.513 125.12 103.465 125.488H108.865ZM117.776 124.768C117.728 125.44 117.68 126.144 117.632 126.88C117.584 127.6 117.544 128.32 117.512 129.04C117.48 129.76 117.448 130.456 117.416 131.128C117.384 131.8 117.36 132.424 117.344 133H114.536C114.568 132.072 114.616 131.072 114.68 130C114.744 128.912 114.816 127.816 114.896 126.712C114.992 125.592 115.088 124.496 115.184 123.424C115.28 122.352 115.384 121.36 115.496 120.448H118.016C118.624 121.424 119.24 122.576 119.864 123.904C120.488 125.216 121.184 126.712 121.952 128.392C122.752 126.68 123.48 125.136 124.136 123.76C124.792 122.368 125.376 121.264 125.888 120.448H128.432C128.544 121.36 128.648 122.352 128.744 123.424C128.856 124.496 128.952 125.592 129.032 126.712C129.112 127.816 129.184 128.912 129.248 130C129.312 131.072 129.36 132.072 129.392 133H126.512C126.48 131.688 126.424 130.336 126.344 128.944C126.28 127.536 126.2 126.144 126.104 124.768C125.864 125.248 125.6 125.784 125.312 126.376C125.04 126.968 124.768 127.568 124.496 128.176C124.224 128.784 123.96 129.376 123.704 129.952C123.448 130.512 123.224 131.008 123.032 131.44H120.872C120.68 131.008 120.448 130.504 120.176 129.928C119.92 129.352 119.656 128.76 119.384 128.152C119.112 127.544 118.832 126.952 118.544 126.376C118.272 125.784 118.016 125.248 117.776 124.768ZM144.13 126.712C144.13 127.704 143.986 128.608 143.698 129.424C143.41 130.24 143.002 130.936 142.474 131.512C141.946 132.088 141.306 132.536 140.554 132.856C139.818 133.176 139.002 133.336 138.106 133.336C137.21 133.336 136.394 133.176 135.658 132.856C134.922 132.536 134.29 132.088 133.762 131.512C133.234 130.936 132.818 130.24 132.514 129.424C132.226 128.608 132.082 127.704 132.082 126.712C132.082 125.72 132.226 124.824 132.514 124.024C132.818 123.208 133.234 122.512 133.762 121.936C134.306 121.36 134.946 120.92 135.682 120.616C136.418 120.296 137.226 120.136 138.106 120.136C138.986 120.136 139.794 120.296 140.53 120.616C141.282 120.92 141.922 121.36 142.45 121.936C142.978 122.512 143.386 123.208 143.674 124.024C143.978 124.824 144.13 125.72 144.13 126.712ZM141.154 126.712C141.154 125.464 140.882 124.48 140.338 123.76C139.81 123.024 139.066 122.656 138.106 122.656C137.146 122.656 136.394 123.024 135.85 123.76C135.322 124.48 135.058 125.464 135.058 126.712C135.058 127.976 135.322 128.976 135.85 129.712C136.394 130.448 137.146 130.816 138.106 130.816C139.066 130.816 139.81 130.448 140.338 129.712C140.882 128.976 141.154 127.976 141.154 126.712ZM150.505 120.832C150.505 122.16 150.457 123.376 150.361 124.48C150.265 125.584 150.145 126.696 150.001 127.816H147.937C147.777 126.696 147.649 125.584 147.553 124.48C147.457 123.36 147.409 122.144 147.409 120.832V116.368H150.505V120.832ZM150.865 131.416C150.865 131.976 150.681 132.432 150.313 132.784C149.945 133.136 149.489 133.312 148.945 133.312C148.417 133.312 147.961 133.136 147.577 132.784C147.209 132.432 147.025 131.976 147.025 131.416C147.025 130.856 147.209 130.4 147.577 130.048C147.961 129.68 148.417 129.496 148.945 129.496C149.489 129.496 149.945 129.68 150.313 130.048C150.681 130.4 150.865 130.856 150.865 131.416Z" fill="#212529"/>
</svg>
