<svg width="159" height="159" viewBox="0 0 159 159" fill="none" xmlns="http://www.w3.org/2000/svg">
<rect width="159" height="159" rx="32" fill="white"/>
<g clip-path="url(#clip0_3286_69434)">
<path d="M86.0122 51.6655C84.2759 52.5332 83.5234 54.1531 83.5234 58.5498C83.5234 58.5498 84.3916 57.682 85.7807 57.1613C86.7935 56.7853 87.517 56.2936 88.0379 55.9175C89.5427 54.7894 89.7742 53.4299 89.7742 51.058C89.7453 51.058 87.3723 50.9134 86.0122 51.6655Z" fill="#FBBD71"/>
<path d="M75.3907 52.6776C73.8859 53.9214 73.5096 56.0619 73.5096 56.0619L68.6479 74.69L64.6543 59.4462C64.2781 57.8263 63.5257 55.8304 62.3971 54.442C61.008 52.6776 58.1141 52.5619 57.7669 52.5619C57.5064 52.5619 54.6415 52.6776 53.1367 54.442C52.008 55.8304 51.2556 57.8263 50.8794 59.4462L47.1174 74.69L42.2556 56.0619C42.2556 56.0619 41.8794 54.066 40.3746 52.6776C38.0016 50.5371 34.5 51.0577 34.5 51.0577L43.7605 85.9131C43.7605 85.9131 46.7701 86.1734 48.2749 85.4214C50.2717 84.409 51.2846 83.6858 52.4132 78.9131C53.5418 74.661 56.5514 62.2809 56.783 61.4131C56.8987 61.0371 57.1592 59.909 57.9116 59.909C58.664 59.909 58.9244 60.9214 59.0402 61.4131C59.3006 62.2809 62.2814 74.661 63.41 78.9131C64.6543 83.6569 65.5225 84.409 67.5482 85.4214C69.0531 86.1734 72.0627 85.9131 72.0627 85.9131L81.2653 51.0577C81.2653 51.0577 77.7637 50.566 75.3907 52.6776Z" fill="black"/>
<path d="M89.7449 56.6694C89.7449 56.6694 89.1083 57.5372 87.8639 58.2893C86.9957 58.781 86.2433 59.0413 85.3752 59.5331C83.8703 60.2851 83.4941 61.0372 83.4941 62.1653V62.5413V64.4215V64.7975V85.7975C83.4941 85.7975 85.8671 86.0579 87.372 85.3058C89.3687 84.2934 89.7449 83.3099 89.7449 79.0579V58.0579V56.6694Z" fill="black"/>
<path d="M112.751 68.5576L124.5 51.1733C124.5 51.1733 119.638 50.3055 117.12 52.5617C115.5 53.9502 113.879 56.5535 113.879 56.5535L109.625 62.8014C109.365 63.1774 109.133 63.4378 108.757 63.4378C108.381 63.4378 108.005 63.0617 107.889 62.8014L103.635 56.5535C103.635 56.5535 101.899 54.0659 100.394 52.5617C97.905 50.3055 93.0144 51.1733 93.0144 51.1733L104.387 68.5287L92.7539 85.8841C92.7539 85.8841 97.8761 86.5204 100.394 84.2642C102.014 82.8758 103.519 80.5039 103.519 80.5039L107.773 74.256C108.034 73.8799 108.265 73.6196 108.641 73.6196C109.018 73.6196 109.394 73.9956 109.51 74.256L113.764 80.5039C113.764 80.5039 115.384 82.8758 116.889 84.2642C119.378 86.5204 124.384 85.8841 124.384 85.8841L112.751 68.5576Z" fill="black"/>
</g>
<path d="M73.4009 126.48C72.9529 127.909 72.4996 129.232 72.0409 130.448C71.5823 131.664 71.1236 132.848 70.6649 134H69.1129C68.5476 132.368 68.0463 130.645 67.6089 128.832C67.1823 127.019 66.7823 125.045 66.4089 122.912H68.0409C68.1903 123.744 68.3449 124.576 68.5049 125.408C68.6649 126.24 68.8303 127.051 69.0009 127.84C69.1716 128.619 69.3423 129.365 69.5129 130.08C69.6836 130.795 69.8596 131.456 70.0409 132.064C70.4676 130.944 70.9209 129.717 71.4009 128.384C71.8809 127.04 72.3289 125.653 72.7449 124.224H74.0889C74.5049 125.653 74.9583 127.04 75.4489 128.384C75.9396 129.717 76.3983 130.944 76.8249 132.064C76.9956 131.467 77.1663 130.811 77.3369 130.096C77.5076 129.381 77.6729 128.635 77.8329 127.856C78.0036 127.067 78.1689 126.256 78.3289 125.424C78.4889 124.581 78.6436 123.744 78.7929 122.912H80.3769C79.9929 125.045 79.5823 127.019 79.1449 128.832C78.7183 130.645 78.2276 132.368 77.6729 134H76.1209C75.6516 132.848 75.1929 131.664 74.7449 130.448C74.2969 129.232 73.8489 127.909 73.4009 126.48ZM83.5883 134H82.1003V125.68H83.5883V134ZM82.8363 124.176C82.5696 124.176 82.3403 124.091 82.1483 123.92C81.967 123.739 81.8763 123.499 81.8763 123.2C81.8763 122.901 81.967 122.667 82.1483 122.496C82.3403 122.315 82.5696 122.224 82.8363 122.224C83.103 122.224 83.327 122.315 83.5083 122.496C83.7003 122.667 83.7963 122.901 83.7963 123.2C83.7963 123.499 83.7003 123.739 83.5083 123.92C83.327 124.091 83.103 124.176 82.8363 124.176ZM91.1232 134C91.0059 133.765 90.8619 133.504 90.6912 133.216C90.5205 132.928 90.3339 132.635 90.1312 132.336C89.9285 132.027 89.7205 131.723 89.5072 131.424C89.2939 131.125 89.0859 130.843 88.8832 130.576C88.6805 130.843 88.4725 131.131 88.2592 131.44C88.0459 131.739 87.8379 132.043 87.6352 132.352C87.4432 132.651 87.2619 132.944 87.0912 133.232C86.9205 133.52 86.7765 133.776 86.6592 134H85.1232C85.4965 133.275 85.9392 132.539 86.4512 131.792C86.9739 131.035 87.4912 130.315 88.0032 129.632L85.2512 125.68H86.9312L88.9152 128.592L90.9152 125.68H92.4992L89.8112 129.536C90.3232 130.229 90.8459 130.965 91.3792 131.744C91.9232 132.512 92.3819 133.264 92.7552 134H91.1232Z" fill="#212529"/>
<defs>
<clipPath id="clip0_3286_69434">
<rect width="90" height="35" fill="white" transform="translate(34.5 51)"/>
</clipPath>
</defs>
</svg>
