<svg width="159" height="159" viewBox="0 0 159 159" fill="none" xmlns="http://www.w3.org/2000/svg">
<rect width="159" height="159" rx="32" fill="white"/>
<path d="M79.5847 26.1431L47.7852 44.4986V81.1801L56.8665 86.4182L56.8071 49.7516L79.5253 36.6192L102.243 49.7516V86.4034L111.325 81.1801V44.469L79.5847 26.1431Z" fill="#F26221"/>
<path d="M84.0974 86.4181L79.5568 89.0446L75.0013 86.4329V49.7515L65.9199 54.9896L65.9348 91.6562L79.5568 99.5207L93.1788 91.6562V54.9896L84.0974 49.7515V86.4181Z" fill="#F26221"/>
<path d="M53.1879 132.464C53.0813 132.208 52.9373 131.883 52.7559 131.488C52.5853 131.093 52.3986 130.667 52.1959 130.208C51.9933 129.749 51.7746 129.28 51.5399 128.8C51.3159 128.309 51.1026 127.851 50.8999 127.424C50.6973 126.987 50.5053 126.597 50.3239 126.256C50.1533 125.915 50.0146 125.653 49.9079 125.472C49.7906 126.731 49.6946 128.096 49.6199 129.568C49.5453 131.029 49.4813 132.507 49.4279 134H47.9079C47.9506 133.04 47.9986 132.075 48.0519 131.104C48.1053 130.123 48.1639 129.163 48.2279 128.224C48.3026 127.275 48.3773 126.352 48.4519 125.456C48.5373 124.56 48.6279 123.712 48.7239 122.912H50.0839C50.3719 123.381 50.6813 123.936 51.0119 124.576C51.3426 125.216 51.6733 125.888 52.0039 126.592C52.3346 127.285 52.6546 127.984 52.9639 128.688C53.2733 129.381 53.5559 130.016 53.8119 130.592C54.0679 130.016 54.3506 129.381 54.6599 128.688C54.9693 127.984 55.2893 127.285 55.6199 126.592C55.9506 125.888 56.2813 125.216 56.6119 124.576C56.9426 123.936 57.2519 123.381 57.5399 122.912H58.8999C59.2626 126.485 59.5346 130.181 59.7159 134H58.1959C58.1426 132.507 58.0786 131.029 58.0039 129.568C57.9293 128.096 57.8333 126.731 57.7159 125.472C57.6093 125.653 57.4653 125.915 57.2839 126.256C57.1133 126.597 56.9266 126.987 56.7239 127.424C56.5213 127.851 56.3026 128.309 56.0679 128.8C55.8439 129.28 55.6306 129.749 55.4279 130.208C55.2253 130.667 55.0333 131.093 54.8519 131.488C54.6813 131.883 54.5426 132.208 54.4359 132.464H53.1879ZM64.8694 132.928C65.2214 132.928 65.5308 132.923 65.7974 132.912C66.0748 132.891 66.3041 132.859 66.4854 132.816V130.336C66.3788 130.283 66.2028 130.24 65.9574 130.208C65.7228 130.165 65.4348 130.144 65.0934 130.144C64.8694 130.144 64.6294 130.16 64.3734 130.192C64.1281 130.224 63.8988 130.293 63.6854 130.4C63.4828 130.496 63.3121 130.635 63.1734 130.816C63.0348 130.987 62.9654 131.216 62.9654 131.504C62.9654 132.037 63.1361 132.411 63.4774 132.624C63.8188 132.827 64.2828 132.928 64.8694 132.928ZM64.7414 125.472C65.3388 125.472 65.8401 125.552 66.2454 125.712C66.6614 125.861 66.9921 126.08 67.2374 126.368C67.4934 126.645 67.6748 126.981 67.7814 127.376C67.8881 127.76 67.9414 128.187 67.9414 128.656V133.856C67.8134 133.877 67.6321 133.909 67.3974 133.952C67.1734 133.984 66.9174 134.016 66.6294 134.048C66.3414 134.08 66.0268 134.107 65.6854 134.128C65.3548 134.16 65.0241 134.176 64.6934 134.176C64.2241 134.176 63.7921 134.128 63.3974 134.032C63.0028 133.936 62.6614 133.787 62.3734 133.584C62.0854 133.371 61.8614 133.093 61.7014 132.752C61.5414 132.411 61.4614 132 61.4614 131.52C61.4614 131.061 61.5521 130.667 61.7334 130.336C61.9254 130.005 62.1814 129.739 62.5014 129.536C62.8214 129.333 63.1948 129.184 63.6214 129.088C64.0481 128.992 64.4961 128.944 64.9654 128.944C65.1148 128.944 65.2694 128.955 65.4294 128.976C65.5894 128.987 65.7388 129.008 65.8774 129.04C66.0268 129.061 66.1548 129.083 66.2614 129.104C66.3681 129.125 66.4428 129.141 66.4854 129.152V128.736C66.4854 128.491 66.4588 128.251 66.4054 128.016C66.3521 127.771 66.2561 127.557 66.1174 127.376C65.9788 127.184 65.7868 127.035 65.5414 126.928C65.3068 126.811 64.9974 126.752 64.6134 126.752C64.1228 126.752 63.6908 126.789 63.3174 126.864C62.9548 126.928 62.6828 126.997 62.5014 127.072L62.3254 125.84C62.5174 125.755 62.8374 125.675 63.2854 125.6C63.7334 125.515 64.2188 125.472 64.7414 125.472ZM75.6288 133.168C75.5008 133.253 75.2501 133.365 74.8768 133.504C74.5141 133.632 74.0875 133.696 73.5968 133.696C73.0955 133.696 72.6208 133.616 72.1728 133.456C71.7355 133.296 71.3515 133.051 71.0208 132.72C70.6901 132.379 70.4288 131.957 70.2368 131.456C70.0448 130.955 69.9488 130.357 69.9488 129.664C69.9488 129.056 70.0395 128.501 70.2208 128C70.4021 127.488 70.6635 127.051 71.0048 126.688C71.3568 126.315 71.7835 126.027 72.2848 125.824C72.7861 125.611 73.3515 125.504 73.9808 125.504C74.6741 125.504 75.2768 125.557 75.7888 125.664C76.3115 125.76 76.7488 125.851 77.1008 125.936V133.36C77.1008 134.64 76.7701 135.568 76.1088 136.144C75.4475 136.72 74.4448 137.008 73.1008 137.008C72.5781 137.008 72.0821 136.965 71.6128 136.88C71.1541 136.795 70.7541 136.693 70.4128 136.576L70.6848 135.28C70.9835 135.397 71.3461 135.499 71.7728 135.584C72.2101 135.68 72.6635 135.728 73.1328 135.728C74.0181 135.728 74.6528 135.552 75.0368 135.2C75.4315 134.848 75.6288 134.288 75.6288 133.52V133.168ZM75.6128 126.992C75.4635 126.949 75.2608 126.912 75.0048 126.88C74.7595 126.837 74.4235 126.816 73.9968 126.816C73.1968 126.816 72.5781 127.077 72.1408 127.6C71.7141 128.123 71.5008 128.816 71.5008 129.68C71.5008 130.16 71.5595 130.571 71.6768 130.912C71.8048 131.253 71.9701 131.536 72.1728 131.76C72.3861 131.984 72.6261 132.149 72.8928 132.256C73.1701 132.363 73.4528 132.416 73.7408 132.416C74.1355 132.416 74.4981 132.363 74.8288 132.256C75.1595 132.139 75.4208 132.005 75.6128 131.856V126.992ZM79.1988 129.856C79.1988 129.12 79.3055 128.48 79.5188 127.936C79.7321 127.381 80.0148 126.923 80.3668 126.56C80.7188 126.197 81.1241 125.925 81.5828 125.744C82.0415 125.563 82.5108 125.472 82.9908 125.472C84.1108 125.472 84.9695 125.824 85.5668 126.528C86.1641 127.221 86.4628 128.283 86.4628 129.712C86.4628 129.776 86.4628 129.861 86.4628 129.968C86.4628 130.064 86.4575 130.155 86.4468 130.24H80.7508C80.8148 131.104 81.0655 131.76 81.5028 132.208C81.9401 132.656 82.6228 132.88 83.5508 132.88C84.0735 132.88 84.5108 132.837 84.8628 132.752C85.2255 132.656 85.4975 132.565 85.6788 132.48L85.8868 133.728C85.7055 133.824 85.3855 133.925 84.9268 134.032C84.4788 134.139 83.9668 134.192 83.3908 134.192C82.6655 134.192 82.0361 134.085 81.5028 133.872C80.9801 133.648 80.5481 133.344 80.2068 132.96C79.8655 132.576 79.6095 132.123 79.4388 131.6C79.2788 131.067 79.1988 130.485 79.1988 129.856ZM84.9108 129.04C84.9215 128.368 84.7508 127.819 84.3988 127.392C84.0575 126.955 83.5828 126.736 82.9748 126.736C82.6335 126.736 82.3295 126.805 82.0628 126.944C81.8068 127.072 81.5881 127.243 81.4068 127.456C81.2255 127.669 81.0815 127.915 80.9748 128.192C80.8788 128.469 80.8148 128.752 80.7828 129.04H84.9108ZM88.6003 125.92C88.9416 125.835 89.395 125.744 89.9603 125.648C90.5256 125.552 91.1763 125.504 91.9123 125.504C92.5736 125.504 93.123 125.6 93.5603 125.792C93.9976 125.973 94.3443 126.235 94.6003 126.576C94.867 126.907 95.0536 127.307 95.1603 127.776C95.267 128.245 95.3203 128.763 95.3203 129.328V134H93.8323V129.648C93.8323 129.136 93.795 128.699 93.7203 128.336C93.6563 127.973 93.5443 127.68 93.3843 127.456C93.2243 127.232 93.011 127.072 92.7443 126.976C92.4776 126.869 92.147 126.816 91.7523 126.816C91.5923 126.816 91.427 126.821 91.2563 126.832C91.0856 126.843 90.9203 126.859 90.7603 126.88C90.611 126.891 90.4723 126.907 90.3443 126.928C90.227 126.949 90.1416 126.965 90.0883 126.976V134H88.6003V125.92ZM99.1798 125.68H102.332V126.928H99.1798V130.768C99.1798 131.184 99.2118 131.531 99.2758 131.808C99.3398 132.075 99.4358 132.288 99.5638 132.448C99.6918 132.597 99.8518 132.704 100.044 132.768C100.236 132.832 100.46 132.864 100.716 132.864C101.164 132.864 101.521 132.816 101.788 132.72C102.065 132.613 102.257 132.539 102.364 132.496L102.652 133.728C102.502 133.803 102.241 133.893 101.868 134C101.494 134.117 101.068 134.176 100.588 134.176C100.022 134.176 99.5531 134.107 99.1798 133.968C98.8171 133.819 98.5238 133.6 98.2998 133.312C98.0758 133.024 97.9158 132.672 97.8198 132.256C97.7345 131.829 97.6918 131.339 97.6918 130.784V123.36L99.1798 123.104V125.68ZM111.351 129.84C111.351 130.501 111.255 131.099 111.063 131.632C110.871 132.165 110.599 132.624 110.247 133.008C109.905 133.392 109.495 133.691 109.015 133.904C108.535 134.107 108.012 134.208 107.447 134.208C106.881 134.208 106.359 134.107 105.879 133.904C105.399 133.691 104.983 133.392 104.631 133.008C104.289 132.624 104.023 132.165 103.831 131.632C103.639 131.099 103.543 130.501 103.543 129.84C103.543 129.189 103.639 128.597 103.831 128.064C104.023 127.52 104.289 127.056 104.631 126.672C104.983 126.288 105.399 125.995 105.879 125.792C106.359 125.579 106.881 125.472 107.447 125.472C108.012 125.472 108.535 125.579 109.015 125.792C109.495 125.995 109.905 126.288 110.247 126.672C110.599 127.056 110.871 127.52 111.063 128.064C111.255 128.597 111.351 129.189 111.351 129.84ZM109.799 129.84C109.799 128.901 109.585 128.16 109.159 127.616C108.743 127.061 108.172 126.784 107.447 126.784C106.721 126.784 106.145 127.061 105.719 127.616C105.303 128.16 105.095 128.901 105.095 129.84C105.095 130.779 105.303 131.525 105.719 132.08C106.145 132.624 106.721 132.896 107.447 132.896C108.172 132.896 108.743 132.624 109.159 132.08C109.585 131.525 109.799 130.779 109.799 129.84Z" fill="#212529"/>
</svg>
