<svg width="159" height="159" viewBox="0 0 159 159" fill="none" xmlns="http://www.w3.org/2000/svg">
<rect width="159" height="159" rx="32" fill="white"/>
<path d="M105.943 38.8918C105.897 38.4765 105.528 38.2919 105.251 38.2919C104.974 38.2919 98.9291 37.8305 98.9291 37.8305C98.9291 37.8305 94.7298 33.6312 94.2221 33.2159C93.7607 32.7544 92.8839 32.8928 92.5147 32.9851C92.4686 32.9851 91.5918 33.262 90.1613 33.7235C88.7308 29.6164 86.285 25.8786 81.9011 25.8786H81.4858C80.286 24.3096 78.717 23.5713 77.4249 23.5713C67.2727 23.5713 62.3812 36.2615 60.8584 42.722C56.8898 43.9679 54.0749 44.7986 53.7519 44.937C51.5369 45.6292 51.4907 45.6753 51.2139 47.7519C50.9831 49.3209 45.2148 93.9443 45.2148 93.9443L90.1151 102.343L114.48 97.0823C114.526 96.99 105.989 39.3072 105.943 38.8918ZM87.6694 34.3695C86.5619 34.6925 85.2236 35.1079 83.8854 35.5693V34.7387C83.8854 32.2468 83.5624 30.2163 82.9625 28.6012C85.2698 28.8781 86.7003 31.4161 87.6694 34.3695ZM80.1475 29.1088C80.7474 30.6778 81.1628 32.8928 81.1628 35.9385V36.3999C78.6709 37.1844 76.0405 37.9689 73.3179 38.8457C74.8407 33.0313 77.7479 30.1702 80.1475 29.1088ZM77.1942 26.2478C77.6556 26.2478 78.1171 26.4324 78.4863 26.7092C75.2099 28.2321 71.7489 32.0622 70.3184 39.8148C68.1495 40.507 66.0729 41.1069 64.0887 41.7529C65.7499 35.8462 69.9031 26.2478 77.1942 26.2478Z" fill="#95BF47"/>
<path d="M105.251 38.1996C104.975 38.1996 98.9294 37.7382 98.9294 37.7382C98.9294 37.7382 94.7301 33.5389 94.2225 33.1236C94.0379 32.939 93.8072 32.8467 93.6226 32.8467L90.2539 102.343L114.619 97.0823C114.619 97.0823 106.082 39.3072 106.036 38.8918C105.851 38.4765 105.528 38.2919 105.251 38.1996Z" fill="#5E8E3E"/>
<path d="M81.9003 51.6745L78.9469 60.5807C78.9469 60.5807 76.2704 59.1502 73.0863 59.1502C68.3333 59.1502 68.1025 62.1497 68.1025 62.888C68.1025 66.9489 78.7162 68.5179 78.7162 78.0701C78.7162 85.592 73.9631 90.4373 67.5488 90.4373C59.7962 90.4373 55.9199 85.6381 55.9199 85.6381L57.9965 78.8085C57.9965 78.8085 62.0574 82.3156 65.4722 82.3156C67.7334 82.3156 68.6563 80.562 68.6563 79.2699C68.6563 73.9631 59.9808 73.7324 59.9808 64.9646C59.9808 57.6273 65.2415 50.5208 75.9012 50.5208C79.8698 50.4747 81.9003 51.6745 81.9003 51.6745Z" fill="#DEE2E6"/>
<path d="M55.9598 132.896C57.5811 132.896 58.3918 132.341 58.3918 131.232C58.3918 130.891 58.3171 130.603 58.1678 130.368C58.0291 130.123 57.8371 129.915 57.5918 129.744C57.3465 129.563 57.0638 129.408 56.7438 129.28C56.4345 129.152 56.1038 129.024 55.7518 128.896C55.3465 128.757 54.9625 128.603 54.5998 128.432C54.2371 128.251 53.9225 128.043 53.6558 127.808C53.3891 127.563 53.1758 127.275 53.0158 126.944C52.8665 126.613 52.7918 126.213 52.7918 125.744C52.7918 124.773 53.1225 124.016 53.7838 123.472C54.4451 122.928 55.3571 122.656 56.5198 122.656C57.1918 122.656 57.7998 122.731 58.3438 122.88C58.8985 123.019 59.3038 123.173 59.5598 123.344L59.0638 124.608C58.8398 124.469 58.5038 124.336 58.0558 124.208C57.6185 124.069 57.1065 124 56.5198 124C56.2211 124 55.9438 124.032 55.6878 124.096C55.4318 124.16 55.2078 124.256 55.0158 124.384C54.8238 124.512 54.6691 124.677 54.5518 124.88C54.4451 125.072 54.3918 125.301 54.3918 125.568C54.3918 125.867 54.4505 126.117 54.5678 126.32C54.6851 126.523 54.8505 126.704 55.0638 126.864C55.2771 127.013 55.5225 127.152 55.7998 127.28C56.0878 127.408 56.4025 127.536 56.7438 127.664C57.2238 127.856 57.6611 128.048 58.0558 128.24C58.4611 128.432 58.8078 128.661 59.0958 128.928C59.3945 129.195 59.6238 129.515 59.7838 129.888C59.9438 130.251 60.0238 130.693 60.0238 131.216C60.0238 132.187 59.6665 132.933 58.9518 133.456C58.2478 133.979 57.2505 134.24 55.9598 134.24C55.5225 134.24 55.1171 134.208 54.7438 134.144C54.3811 134.091 54.0558 134.027 53.7678 133.952C53.4798 133.867 53.2291 133.781 53.0158 133.696C52.8131 133.6 52.6531 133.52 52.5358 133.456L52.9998 132.176C53.2451 132.315 53.6185 132.469 54.1198 132.64C54.6211 132.811 55.2345 132.896 55.9598 132.896ZM61.8034 134V121.84L63.2914 121.584V125.84C63.5688 125.733 63.8621 125.653 64.1714 125.6C64.4914 125.536 64.8061 125.504 65.1154 125.504C65.7768 125.504 66.3261 125.6 66.7634 125.792C67.2008 125.973 67.5474 126.235 67.8034 126.576C68.0701 126.907 68.2568 127.307 68.3634 127.776C68.4701 128.245 68.5234 128.763 68.5234 129.328V134H67.0354V129.648C67.0354 129.136 66.9981 128.699 66.9234 128.336C66.8594 127.973 66.7474 127.68 66.5874 127.456C66.4274 127.232 66.2141 127.072 65.9474 126.976C65.6808 126.869 65.3501 126.816 64.9554 126.816C64.7954 126.816 64.6301 126.827 64.4594 126.848C64.2888 126.869 64.1234 126.896 63.9634 126.928C63.8141 126.949 63.6754 126.976 63.5474 127.008C63.4301 127.04 63.3448 127.067 63.2914 127.088V134H61.8034ZM78.2881 129.84C78.2881 130.501 78.1921 131.099 78.0001 131.632C77.8081 132.165 77.5361 132.624 77.1841 133.008C76.8427 133.392 76.4321 133.691 75.9521 133.904C75.4721 134.107 74.9494 134.208 74.3841 134.208C73.8187 134.208 73.2961 134.107 72.8161 133.904C72.3361 133.691 71.9201 133.392 71.5681 133.008C71.2267 132.624 70.9601 132.165 70.7681 131.632C70.5761 131.099 70.4801 130.501 70.4801 129.84C70.4801 129.189 70.5761 128.597 70.7681 128.064C70.9601 127.52 71.2267 127.056 71.5681 126.672C71.9201 126.288 72.3361 125.995 72.8161 125.792C73.2961 125.579 73.8187 125.472 74.3841 125.472C74.9494 125.472 75.4721 125.579 75.9521 125.792C76.4321 125.995 76.8427 126.288 77.1841 126.672C77.5361 127.056 77.8081 127.52 78.0001 128.064C78.1921 128.597 78.2881 129.189 78.2881 129.84ZM76.7361 129.84C76.7361 128.901 76.5227 128.16 76.0961 127.616C75.6801 127.061 75.1094 126.784 74.3841 126.784C73.6587 126.784 73.0827 127.061 72.6561 127.616C72.2401 128.16 72.0321 128.901 72.0321 129.84C72.0321 130.779 72.2401 131.525 72.6561 132.08C73.0827 132.624 73.6587 132.896 74.3841 132.896C75.1094 132.896 75.6801 132.624 76.0961 132.08C76.5227 131.525 76.7361 130.779 76.7361 129.84ZM86.1576 129.856C86.1576 128.885 85.9176 128.139 85.4376 127.616C84.9576 127.093 84.3176 126.832 83.5176 126.832C83.0696 126.832 82.7176 126.848 82.4616 126.88C82.2162 126.912 82.0189 126.949 81.8696 126.992V132.24C82.0509 132.389 82.3122 132.533 82.6536 132.672C82.9949 132.811 83.3682 132.88 83.7736 132.88C84.2002 132.88 84.5629 132.805 84.8616 132.656C85.1709 132.496 85.4216 132.283 85.6136 132.016C85.8056 131.739 85.9442 131.419 86.0296 131.056C86.1149 130.683 86.1576 130.283 86.1576 129.856ZM87.7096 129.856C87.7096 130.485 87.6242 131.067 87.4536 131.6C87.2936 132.133 87.0536 132.592 86.7336 132.976C86.4136 133.36 86.0189 133.659 85.5496 133.872C85.0909 134.085 84.5629 134.192 83.9656 134.192C83.4856 134.192 83.0589 134.128 82.6856 134C82.3229 133.872 82.0509 133.749 81.8696 133.632V136.96H80.3816V125.936C80.7336 125.851 81.1709 125.76 81.6936 125.664C82.2269 125.557 82.8402 125.504 83.5336 125.504C84.1736 125.504 84.7496 125.605 85.2616 125.808C85.7736 126.011 86.2109 126.299 86.5736 126.672C86.9362 127.045 87.2136 127.504 87.4056 128.048C87.6082 128.581 87.7096 129.184 87.7096 129.856ZM91.2914 134H89.8034V125.68H91.2914V134ZM90.5394 124.176C90.2728 124.176 90.0434 124.091 89.8514 123.92C89.6701 123.739 89.5794 123.499 89.5794 123.2C89.5794 122.901 89.6701 122.667 89.8514 122.496C90.0434 122.315 90.2728 122.224 90.5394 122.224C90.8061 122.224 91.0301 122.315 91.2114 122.496C91.4034 122.667 91.4994 122.901 91.4994 123.2C91.4994 123.499 91.4034 123.739 91.2114 123.92C91.0301 124.091 90.8061 124.176 90.5394 124.176ZM97.0983 121.584C97.5356 121.584 97.909 121.616 98.2183 121.68C98.5383 121.744 98.7623 121.803 98.8903 121.856L98.6183 123.136C98.4903 123.072 98.309 123.013 98.0743 122.96C97.8396 122.896 97.5516 122.864 97.2103 122.864C96.517 122.864 96.0316 123.056 95.7543 123.44C95.477 123.813 95.3383 124.32 95.3383 124.96V125.68H98.5383V126.928H95.3383V134H93.8503V124.928C93.8503 123.861 94.1116 123.04 94.6343 122.464C95.157 121.877 95.9783 121.584 97.0983 121.584ZM99.3431 135.552C99.4604 135.605 99.6097 135.653 99.7911 135.696C99.9831 135.749 100.17 135.776 100.351 135.776C100.938 135.776 101.396 135.643 101.727 135.376C102.058 135.12 102.356 134.699 102.623 134.112C101.951 132.832 101.322 131.477 100.735 130.048C100.159 128.608 99.6791 127.152 99.2951 125.68H100.895C101.012 126.16 101.151 126.677 101.311 127.232C101.482 127.787 101.668 128.357 101.871 128.944C102.074 129.531 102.292 130.117 102.527 130.704C102.762 131.291 103.007 131.856 103.263 132.4C103.668 131.28 104.02 130.171 104.319 129.072C104.618 127.973 104.9 126.843 105.167 125.68H106.703C106.319 127.248 105.892 128.757 105.423 130.208C104.954 131.648 104.447 132.997 103.903 134.256C103.69 134.736 103.466 135.147 103.231 135.488C103.007 135.84 102.756 136.128 102.479 136.352C102.202 136.576 101.887 136.741 101.535 136.848C101.194 136.955 100.804 137.008 100.367 137.008C100.25 137.008 100.127 136.997 99.9991 136.976C99.8711 136.965 99.7431 136.944 99.6151 136.912C99.4977 136.891 99.3857 136.864 99.2791 136.832C99.1831 136.8 99.1137 136.773 99.0711 136.752L99.3431 135.552Z" fill="#212529"/>
</svg>
