<svg width="159" height="159" viewBox="0 0 159 159" fill="none" xmlns="http://www.w3.org/2000/svg">
<rect width="159" height="159" rx="32" fill="white"/>
<path d="M110.436 57.7207C109.143 36.5494 86.0401 18.1885 76.6143 18.0012C67.0037 17.8138 49.261 40.2966 48.5218 63.154C47.7825 84.5126 66.0796 99.1264 74.0268 101C74.2117 90.8828 75.1357 53.7862 75.1357 49.477C75.5054 40.6713 75.875 26.8069 77.3536 26.4322C78.2777 26.2448 79.3866 33.9264 79.2018 38.423C79.2018 39.3598 79.2018 42.1701 79.2018 46.1046C80.8651 44.4184 82.5285 42.7322 83.4526 41.7954C86.2249 38.9851 87.5186 39.3598 86.0401 41.7954C85.3008 43.2943 81.7892 48.3529 79.2018 51.9127C79.2018 59.2196 79.2018 68.4 79.2018 76.831C82.8982 72.5218 87.3338 67.4632 89.7365 65.215C94.7266 60.3437 95.2811 61.0931 92.8784 65.9644C91.3998 68.9621 84.3767 77.2057 79.3866 83.7632C79.3866 91.2575 79.3866 97.6276 79.3866 100.625C93.0632 97.8149 111.73 78.7046 110.436 57.7207Z" fill="#DE6C26"/>
<path d="M50.3889 128.448C50.3889 127.499 50.5276 126.661 50.8049 125.936C51.0929 125.211 51.4769 124.608 51.9569 124.128C52.4476 123.637 53.0129 123.269 53.6529 123.024C54.3036 122.779 54.9916 122.656 55.7169 122.656C56.4316 122.656 57.1036 122.779 57.7329 123.024C58.3729 123.269 58.9329 123.637 59.4129 124.128C59.8929 124.608 60.2716 125.211 60.5489 125.936C60.8369 126.661 60.9809 127.499 60.9809 128.448C60.9809 129.397 60.8369 130.235 60.5489 130.96C60.2716 131.685 59.8929 132.293 59.4129 132.784C58.9329 133.264 58.3729 133.627 57.7329 133.872C57.1036 134.117 56.4316 134.24 55.7169 134.24C54.9916 134.24 54.3036 134.117 53.6529 133.872C53.0129 133.627 52.4476 133.264 51.9569 132.784C51.4769 132.293 51.0929 131.685 50.8049 130.96C50.5276 130.235 50.3889 129.397 50.3889 128.448ZM52.0209 128.448C52.0209 129.12 52.1063 129.733 52.2769 130.288C52.4476 130.832 52.6876 131.296 52.9969 131.68C53.3169 132.064 53.7009 132.363 54.1489 132.576C54.6076 132.779 55.1196 132.88 55.6849 132.88C56.2503 132.88 56.7569 132.779 57.2049 132.576C57.6529 132.363 58.0316 132.064 58.3409 131.68C58.6609 131.296 58.9063 130.832 59.0769 130.288C59.2476 129.733 59.3329 129.12 59.3329 128.448C59.3329 127.776 59.2476 127.168 59.0769 126.624C58.9063 126.069 58.6609 125.6 58.3409 125.216C58.0316 124.832 57.6529 124.539 57.2049 124.336C56.7569 124.123 56.2503 124.016 55.6849 124.016C55.1196 124.016 54.6076 124.123 54.1489 124.336C53.7009 124.539 53.3169 124.832 52.9969 125.216C52.6876 125.6 52.4476 126.069 52.2769 126.624C52.1063 127.168 52.0209 127.776 52.0209 128.448ZM66.8101 134.192C66.1381 134.192 65.5461 134.085 65.0341 133.872C64.5327 133.659 64.1061 133.36 63.7541 132.976C63.4127 132.592 63.1567 132.139 62.9861 131.616C62.8154 131.083 62.7301 130.496 62.7301 129.856C62.7301 129.216 62.8207 128.629 63.0021 128.096C63.1941 127.563 63.4607 127.104 63.8021 126.72C64.1434 126.325 64.5594 126.021 65.0501 125.808C65.5514 125.584 66.1061 125.472 66.7141 125.472C67.0874 125.472 67.4607 125.504 67.8341 125.568C68.2074 125.632 68.5647 125.733 68.9061 125.872L68.5701 127.136C68.3461 127.029 68.0847 126.944 67.7861 126.88C67.4981 126.816 67.1887 126.784 66.8581 126.784C66.0261 126.784 65.3861 127.045 64.9381 127.568C64.5007 128.091 64.2821 128.853 64.2821 129.856C64.2821 130.304 64.3301 130.715 64.4261 131.088C64.5327 131.461 64.6927 131.781 64.9061 132.048C65.1301 132.315 65.4127 132.523 65.7541 132.672C66.0954 132.811 66.5114 132.88 67.0021 132.88C67.3967 132.88 67.7541 132.843 68.0741 132.768C68.3941 132.693 68.6447 132.613 68.8261 132.528L69.0341 133.776C68.9487 133.829 68.8261 133.883 68.6661 133.936C68.5061 133.979 68.3247 134.016 68.1221 134.048C67.9194 134.091 67.7007 134.123 67.4661 134.144C67.2421 134.176 67.0234 134.192 66.8101 134.192ZM72.0236 125.68H75.1756V126.928H72.0236V130.768C72.0236 131.184 72.0556 131.531 72.1196 131.808C72.1836 132.075 72.2796 132.288 72.4076 132.448C72.5356 132.597 72.6956 132.704 72.8876 132.768C73.0796 132.832 73.3036 132.864 73.5596 132.864C74.0076 132.864 74.3649 132.816 74.6316 132.72C74.9089 132.613 75.1009 132.539 75.2076 132.496L75.4956 133.728C75.3462 133.803 75.0849 133.893 74.7116 134C74.3382 134.117 73.9116 134.176 73.4316 134.176C72.8662 134.176 72.3969 134.107 72.0236 133.968C71.6609 133.819 71.3676 133.6 71.1436 133.312C70.9196 133.024 70.7596 132.672 70.6636 132.256C70.5782 131.829 70.5356 131.339 70.5356 130.784V123.36L72.0236 123.104V125.68ZM84.1943 129.84C84.1943 130.501 84.0983 131.099 83.9063 131.632C83.7143 132.165 83.4423 132.624 83.0903 133.008C82.749 133.392 82.3383 133.691 81.8583 133.904C81.3783 134.107 80.8556 134.208 80.2903 134.208C79.725 134.208 79.2023 134.107 78.7223 133.904C78.2423 133.691 77.8263 133.392 77.4743 133.008C77.133 132.624 76.8663 132.165 76.6743 131.632C76.4823 131.099 76.3863 130.501 76.3863 129.84C76.3863 129.189 76.4823 128.597 76.6743 128.064C76.8663 127.52 77.133 127.056 77.4743 126.672C77.8263 126.288 78.2423 125.995 78.7223 125.792C79.2023 125.579 79.725 125.472 80.2903 125.472C80.8556 125.472 81.3783 125.579 81.8583 125.792C82.3383 125.995 82.749 126.288 83.0903 126.672C83.4423 127.056 83.7143 127.52 83.9063 128.064C84.0983 128.597 84.1943 129.189 84.1943 129.84ZM82.6423 129.84C82.6423 128.901 82.429 128.16 82.0023 127.616C81.5863 127.061 81.0156 126.784 80.2903 126.784C79.565 126.784 78.989 127.061 78.5623 127.616C78.1463 128.16 77.9383 128.901 77.9383 129.84C77.9383 130.779 78.1463 131.525 78.5623 132.08C78.989 132.624 79.565 132.896 80.2903 132.896C81.0156 132.896 81.5863 132.624 82.0023 132.08C82.429 131.525 82.6423 130.779 82.6423 129.84ZM87.7758 126.048C87.9571 125.931 88.2291 125.808 88.5918 125.68C88.9651 125.552 89.3918 125.488 89.8718 125.488C90.4691 125.488 90.9971 125.595 91.4558 125.808C91.9251 126.021 92.3198 126.32 92.6398 126.704C92.9598 127.088 93.1998 127.547 93.3598 128.08C93.5305 128.613 93.6158 129.2 93.6158 129.84C93.6158 130.512 93.5145 131.12 93.3118 131.664C93.1198 132.197 92.8425 132.651 92.4798 133.024C92.1171 133.397 91.6798 133.685 91.1678 133.888C90.6558 134.091 90.0798 134.192 89.4398 134.192C88.7465 134.192 88.1331 134.144 87.5998 134.048C87.0665 133.952 86.6291 133.856 86.2878 133.76V121.84L87.7758 121.584V126.048ZM87.7758 132.704C87.9251 132.747 88.1331 132.789 88.3998 132.832C88.6771 132.864 89.0185 132.88 89.4238 132.88C90.2238 132.88 90.8638 132.619 91.3438 132.096C91.8238 131.563 92.0638 130.811 92.0638 129.84C92.0638 129.413 92.0211 129.013 91.9358 128.64C91.8505 128.267 91.7118 127.947 91.5198 127.68C91.3278 127.403 91.0771 127.189 90.7678 127.04C90.4691 126.88 90.1065 126.8 89.6798 126.8C89.2745 126.8 88.9011 126.869 88.5598 127.008C88.2185 127.147 87.9571 127.291 87.7758 127.44V132.704ZM95.2457 129.856C95.2457 129.12 95.3524 128.48 95.5657 127.936C95.779 127.381 96.0617 126.923 96.4137 126.56C96.7657 126.197 97.171 125.925 97.6297 125.744C98.0884 125.563 98.5577 125.472 99.0377 125.472C100.158 125.472 101.016 125.824 101.614 126.528C102.211 127.221 102.51 128.283 102.51 129.712C102.51 129.776 102.51 129.861 102.51 129.968C102.51 130.064 102.504 130.155 102.494 130.24H96.7977C96.8617 131.104 97.1124 131.76 97.5497 132.208C97.987 132.656 98.6697 132.88 99.5977 132.88C100.12 132.88 100.558 132.837 100.91 132.752C101.272 132.656 101.544 132.565 101.726 132.48L101.934 133.728C101.752 133.824 101.432 133.925 100.974 134.032C100.526 134.139 100.014 134.192 99.4377 134.192C98.7124 134.192 98.083 134.085 97.5497 133.872C97.027 133.648 96.595 133.344 96.2537 132.96C95.9124 132.576 95.6564 132.123 95.4857 131.6C95.3257 131.067 95.2457 130.485 95.2457 129.856ZM100.958 129.04C100.968 128.368 100.798 127.819 100.446 127.392C100.104 126.955 99.6297 126.736 99.0217 126.736C98.6804 126.736 98.3764 126.805 98.1097 126.944C97.8537 127.072 97.635 127.243 97.4537 127.456C97.2724 127.669 97.1284 127.915 97.0217 128.192C96.9257 128.469 96.8617 128.752 96.8297 129.04H100.958ZM107.719 125.504C107.847 125.504 107.991 125.515 108.151 125.536C108.322 125.547 108.487 125.568 108.647 125.6C108.807 125.621 108.951 125.648 109.079 125.68C109.218 125.701 109.319 125.723 109.383 125.744L109.127 127.04C109.01 126.997 108.813 126.949 108.535 126.896C108.269 126.832 107.922 126.8 107.495 126.8C107.218 126.8 106.941 126.832 106.663 126.896C106.397 126.949 106.221 126.987 106.135 127.008V134H104.647V126.032C104.999 125.904 105.437 125.787 105.959 125.68C106.482 125.563 107.069 125.504 107.719 125.504Z" fill="#212529"/>
</svg>
