<svg width="159" height="159" viewBox="0 0 159 159" fill="none" xmlns="http://www.w3.org/2000/svg">
<path d="M0 32C0 14.3269 14.3269 0 32 0H127C144.673 0 159 14.3269 159 32V127C159 144.673 144.673 159 127 159H32C14.3269 159 0 144.673 0 127V32Z" fill="white"/>
<circle cx="79.5003" cy="62.9998" r="41.1429" fill="#29B6F6"/>
<path d="M108.174 54.8737C108.153 52.4635 103.703 51.3695 92.1847 51.3695C65.1587 51.3695 58.3021 50.2141 50.9648 42.4858C54.0517 47.1262 55.7405 55.8298 84.3062 55.3967C114.11 54.9372 95.9279 63.0886 90.6376 72.2981C100.178 63.7751 108.145 58.1573 108.174 54.9086V54.8737ZM70.1965 79.6229C70.1955 81.8632 68.3542 83.7064 66.1156 83.7069C63.8545 83.7069 62.0261 81.877 62.0261 79.6229C62.0261 79.6219 62.0261 79.6208 62.0261 79.6197C62.0261 77.3757 63.8705 75.5291 66.1134 75.5291C66.1145 75.5291 66.1145 75.5291 66.1156 75.5291C68.3692 75.5291 70.1965 77.3595 70.1965 79.6229ZM88.8081 79.6229C88.807 81.8632 86.9658 83.7064 84.7271 83.7069C82.4682 83.7069 80.6387 81.877 80.6387 79.6229C80.6387 79.6219 80.6387 79.6208 80.6387 79.6197C80.6387 77.3757 82.4831 75.5291 84.725 75.5291C84.726 75.5291 84.726 75.5291 84.7271 75.5291C86.9807 75.5291 88.8081 77.3595 88.8081 79.6229Z" fill="white"/>
<path d="M44.9827 128.448C44.9827 127.499 45.1214 126.661 45.3987 125.936C45.6867 125.211 46.0707 124.608 46.5507 124.128C47.0414 123.637 47.6067 123.269 48.2467 123.024C48.8974 122.779 49.5854 122.656 50.3107 122.656C51.0254 122.656 51.6974 122.779 52.3267 123.024C52.9667 123.269 53.5267 123.637 54.0067 124.128C54.4867 124.608 54.8654 125.211 55.1427 125.936C55.4307 126.661 55.5747 127.499 55.5747 128.448C55.5747 129.397 55.4307 130.235 55.1427 130.96C54.8654 131.685 54.4867 132.293 54.0067 132.784C53.5267 133.264 52.9667 133.627 52.3267 133.872C51.6974 134.117 51.0254 134.24 50.3107 134.24C49.5854 134.24 48.8974 134.117 48.2467 133.872C47.6067 133.627 47.0414 133.264 46.5507 132.784C46.0707 132.293 45.6867 131.685 45.3987 130.96C45.1214 130.235 44.9827 129.397 44.9827 128.448ZM46.6147 128.448C46.6147 129.12 46.7 129.733 46.8707 130.288C47.0414 130.832 47.2814 131.296 47.5907 131.68C47.9107 132.064 48.2947 132.363 48.7427 132.576C49.2014 132.779 49.7134 132.88 50.2787 132.88C50.844 132.88 51.3507 132.779 51.7987 132.576C52.2467 132.363 52.6254 132.064 52.9347 131.68C53.2547 131.296 53.5 130.832 53.6707 130.288C53.8414 129.733 53.9267 129.12 53.9267 128.448C53.9267 127.776 53.8414 127.168 53.6707 126.624C53.5 126.069 53.2547 125.6 52.9347 125.216C52.6254 124.832 52.2467 124.539 51.7987 124.336C51.3507 124.123 50.844 124.016 50.2787 124.016C49.7134 124.016 49.2014 124.123 48.7427 124.336C48.2947 124.539 47.9107 124.832 47.5907 125.216C47.2814 125.6 47.0414 126.069 46.8707 126.624C46.7 127.168 46.6147 127.776 46.6147 128.448ZM63.5638 129.856C63.5638 128.885 63.3238 128.139 62.8438 127.616C62.3638 127.093 61.7238 126.832 60.9238 126.832C60.4758 126.832 60.1238 126.848 59.8678 126.88C59.6225 126.912 59.4251 126.949 59.2758 126.992V132.24C59.4571 132.389 59.7185 132.533 60.0598 132.672C60.4011 132.811 60.7745 132.88 61.1798 132.88C61.6065 132.88 61.9691 132.805 62.2678 132.656C62.5771 132.496 62.8278 132.283 63.0198 132.016C63.2118 131.739 63.3505 131.419 63.4358 131.056C63.5211 130.683 63.5638 130.283 63.5638 129.856ZM65.1158 129.856C65.1158 130.485 65.0305 131.067 64.8598 131.6C64.6998 132.133 64.4598 132.592 64.1398 132.976C63.8198 133.36 63.4251 133.659 62.9558 133.872C62.4971 134.085 61.9691 134.192 61.3718 134.192C60.8918 134.192 60.4651 134.128 60.0918 134C59.7291 133.872 59.4571 133.749 59.2758 133.632V136.96H57.7878V125.936C58.1398 125.851 58.5771 125.76 59.0998 125.664C59.6331 125.557 60.2465 125.504 60.9398 125.504C61.5798 125.504 62.1558 125.605 62.6678 125.808C63.1798 126.011 63.6171 126.299 63.9798 126.672C64.3425 127.045 64.6198 127.504 64.8118 128.048C65.0145 128.581 65.1158 129.184 65.1158 129.856ZM66.7457 129.856C66.7457 129.12 66.8524 128.48 67.0657 127.936C67.279 127.381 67.5617 126.923 67.9137 126.56C68.2657 126.197 68.671 125.925 69.1297 125.744C69.5884 125.563 70.0577 125.472 70.5377 125.472C71.6577 125.472 72.5164 125.824 73.1137 126.528C73.711 127.221 74.0097 128.283 74.0097 129.712C74.0097 129.776 74.0097 129.861 74.0097 129.968C74.0097 130.064 74.0044 130.155 73.9937 130.24H68.2977C68.3617 131.104 68.6124 131.76 69.0497 132.208C69.487 132.656 70.1697 132.88 71.0977 132.88C71.6204 132.88 72.0577 132.837 72.4097 132.752C72.7724 132.656 73.0444 132.565 73.2257 132.48L73.4337 133.728C73.2524 133.824 72.9324 133.925 72.4737 134.032C72.0257 134.139 71.5137 134.192 70.9377 134.192C70.2124 134.192 69.583 134.085 69.0497 133.872C68.527 133.648 68.095 133.344 67.7537 132.96C67.4124 132.576 67.1564 132.123 66.9857 131.6C66.8257 131.067 66.7457 130.485 66.7457 129.856ZM72.4577 129.04C72.4684 128.368 72.2977 127.819 71.9457 127.392C71.6044 126.955 71.1297 126.736 70.5217 126.736C70.1804 126.736 69.8764 126.805 69.6097 126.944C69.3537 127.072 69.135 127.243 68.9537 127.456C68.7724 127.669 68.6284 127.915 68.5217 128.192C68.4257 128.469 68.3617 128.752 68.3297 129.04H72.4577ZM76.1472 125.92C76.4885 125.835 76.9419 125.744 77.5072 125.648C78.0725 125.552 78.7232 125.504 79.4592 125.504C80.1205 125.504 80.6699 125.6 81.1072 125.792C81.5445 125.973 81.8912 126.235 82.1472 126.576C82.4139 126.907 82.6005 127.307 82.7072 127.776C82.8139 128.245 82.8672 128.763 82.8672 129.328V134H81.3792V129.648C81.3792 129.136 81.3419 128.699 81.2672 128.336C81.2032 127.973 81.0912 127.68 80.9312 127.456C80.7712 127.232 80.5579 127.072 80.2912 126.976C80.0245 126.869 79.6939 126.816 79.2992 126.816C79.1392 126.816 78.9739 126.821 78.8032 126.832C78.6325 126.843 78.4672 126.859 78.3072 126.88C78.1579 126.891 78.0192 126.907 77.8912 126.928C77.7739 126.949 77.6885 126.965 77.6352 126.976V134H76.1472V125.92ZM90.1987 134.24C89.42 134.24 88.7107 134.112 88.0707 133.856C87.4307 133.6 86.8814 133.227 86.4227 132.736C85.964 132.245 85.6067 131.643 85.3507 130.928C85.1054 130.203 84.9827 129.376 84.9827 128.448C84.9827 127.52 85.1214 126.699 85.3987 125.984C85.6867 125.259 86.0707 124.651 86.5507 124.16C87.0307 123.669 87.5907 123.296 88.2307 123.04C88.8707 122.784 89.5534 122.656 90.2787 122.656C90.7374 122.656 91.148 122.688 91.5107 122.752C91.884 122.816 92.204 122.891 92.4707 122.976C92.748 123.061 92.972 123.147 93.1427 123.232C93.3134 123.317 93.4307 123.381 93.4947 123.424L93.0467 124.704C92.9507 124.64 92.812 124.571 92.6307 124.496C92.4494 124.421 92.2414 124.347 92.0067 124.272C91.7827 124.197 91.532 124.139 91.2547 124.096C90.988 124.043 90.716 124.016 90.4387 124.016C89.852 124.016 89.324 124.117 88.8547 124.32C88.3854 124.523 87.9854 124.816 87.6547 125.2C87.324 125.584 87.068 126.053 86.8867 126.608C86.716 127.152 86.6307 127.765 86.6307 128.448C86.6307 129.109 86.7054 129.712 86.8547 130.256C87.0147 130.8 87.2494 131.269 87.5587 131.664C87.868 132.048 88.252 132.347 88.7107 132.56C89.18 132.773 89.724 132.88 90.3427 132.88C91.0574 132.88 91.6494 132.805 92.1187 132.656C92.588 132.507 92.94 132.373 93.1747 132.256L93.5747 133.536C93.5 133.589 93.3667 133.659 93.1747 133.744C92.9827 133.819 92.7427 133.893 92.4547 133.968C92.1667 134.043 91.8307 134.107 91.4467 134.16C91.0627 134.213 90.6467 134.24 90.1987 134.24ZM98.0726 132.928C98.4246 132.928 98.7339 132.923 99.0006 132.912C99.2779 132.891 99.5072 132.859 99.6886 132.816V130.336C99.5819 130.283 99.4059 130.24 99.1606 130.208C98.9259 130.165 98.6379 130.144 98.2966 130.144C98.0726 130.144 97.8326 130.16 97.5766 130.192C97.3312 130.224 97.1019 130.293 96.8886 130.4C96.6859 130.496 96.5152 130.635 96.3766 130.816C96.2379 130.987 96.1686 131.216 96.1686 131.504C96.1686 132.037 96.3392 132.411 96.6806 132.624C97.0219 132.827 97.4859 132.928 98.0726 132.928ZM97.9446 125.472C98.5419 125.472 99.0432 125.552 99.4486 125.712C99.8646 125.861 100.195 126.08 100.441 126.368C100.697 126.645 100.878 126.981 100.985 127.376C101.091 127.76 101.145 128.187 101.145 128.656V133.856C101.017 133.877 100.835 133.909 100.601 133.952C100.377 133.984 100.121 134.016 99.8326 134.048C99.5446 134.08 99.2299 134.107 98.8886 134.128C98.5579 134.16 98.2272 134.176 97.8966 134.176C97.4272 134.176 96.9952 134.128 96.6006 134.032C96.2059 133.936 95.8646 133.787 95.5766 133.584C95.2886 133.371 95.0646 133.093 94.9046 132.752C94.7446 132.411 94.6646 132 94.6646 131.52C94.6646 131.061 94.7552 130.667 94.9366 130.336C95.1286 130.005 95.3846 129.739 95.7046 129.536C96.0246 129.333 96.3979 129.184 96.8246 129.088C97.2512 128.992 97.6992 128.944 98.1686 128.944C98.3179 128.944 98.4726 128.955 98.6326 128.976C98.7926 128.987 98.9419 129.008 99.0806 129.04C99.2299 129.061 99.3579 129.083 99.4646 129.104C99.5712 129.125 99.6459 129.141 99.6886 129.152V128.736C99.6886 128.491 99.6619 128.251 99.6086 128.016C99.5552 127.771 99.4592 127.557 99.3206 127.376C99.1819 127.184 98.9899 127.035 98.7446 126.928C98.5099 126.811 98.2006 126.752 97.8166 126.752C97.3259 126.752 96.8939 126.789 96.5206 126.864C96.1579 126.928 95.8859 126.997 95.7046 127.072L95.5286 125.84C95.7206 125.755 96.0406 125.675 96.4886 125.6C96.9366 125.515 97.4219 125.472 97.9446 125.472ZM106.688 125.504C106.816 125.504 106.96 125.515 107.12 125.536C107.291 125.547 107.456 125.568 107.616 125.6C107.776 125.621 107.92 125.648 108.048 125.68C108.187 125.701 108.288 125.723 108.352 125.744L108.096 127.04C107.979 126.997 107.781 126.949 107.504 126.896C107.237 126.832 106.891 126.8 106.464 126.8C106.187 126.8 105.909 126.832 105.632 126.896C105.365 126.949 105.189 126.987 105.104 127.008V134H103.616V126.032C103.968 125.904 104.405 125.787 104.928 125.68C105.451 125.563 106.037 125.504 106.688 125.504ZM111.18 125.68H114.332V126.928H111.18V130.768C111.18 131.184 111.212 131.531 111.276 131.808C111.34 132.075 111.436 132.288 111.564 132.448C111.692 132.597 111.852 132.704 112.044 132.768C112.236 132.832 112.46 132.864 112.716 132.864C113.164 132.864 113.521 132.816 113.788 132.72C114.065 132.613 114.257 132.539 114.364 132.496L114.652 133.728C114.502 133.803 114.241 133.893 113.868 134C113.494 134.117 113.068 134.176 112.588 134.176C112.022 134.176 111.553 134.107 111.18 133.968C110.817 133.819 110.524 133.6 110.3 133.312C110.076 133.024 109.916 132.672 109.82 132.256C109.734 131.829 109.692 131.339 109.692 130.784V123.36L111.18 123.104V125.68Z" fill="#212529"/>
</svg>
