<svg width="159" height="159" viewBox="0 0 159 159" fill="none" xmlns="http://www.w3.org/2000/svg">
<rect width="159" height="159" rx="32" fill="white"/>
<path d="M57.4745 62.8562L56.2143 61.596C52.1635 57.5452 50.9932 51.874 52.4335 46.743C48.3827 45.8428 45.4121 42.2421 45.4121 37.9212C45.4121 32.9702 49.4629 28.9194 54.4139 28.9194C58.9148 28.9194 62.6056 32.1601 63.3257 36.481C68.1867 35.3107 73.4977 36.661 77.2785 40.4417L77.8186 40.9819L71.1573 47.6432L70.6172 47.1031C68.4567 44.9426 64.946 44.9426 62.7856 47.1031C60.6252 49.2635 60.6252 52.7742 62.7856 54.9347L77.7286 69.8777L71.0673 76.539L64.0458 69.5176L57.4745 62.8562Z" fill="#7AC043"/>
<path d="M64.9453 55.4751L79.8883 40.5321C83.8491 36.5713 89.6103 35.311 94.6513 36.7513C95.2814 32.3404 99.0622 29.0098 103.563 29.0098C108.514 29.0098 112.565 33.0606 112.565 38.0116C112.565 42.6025 109.144 46.3832 104.733 46.9234C106.174 51.9644 104.913 57.6355 100.953 61.5963L100.412 62.1364L93.9311 55.4751L94.4712 54.935C96.6317 52.7745 96.6317 49.2638 94.4712 47.1034C92.3108 44.943 88.8001 44.943 86.6397 47.1034L71.6967 62.0464L64.9453 55.4751Z" fill="#F9AE41"/>
<path d="M94.9245 89.0517C89.7935 90.582 84.0323 89.4117 79.9815 85.3609L79.4414 84.8208L86.1027 78.1595L86.6429 78.6996C88.8033 80.86 92.314 80.86 94.4744 78.6996C96.6349 76.5391 96.6349 73.0284 94.4744 70.868L79.5314 55.925L86.1928 49.2637L101.226 64.2967C105.007 68.0774 106.357 73.4785 105.187 78.4295C109.597 79.0596 112.928 82.8404 112.928 87.3413C112.928 92.2923 108.877 96.3431 103.926 96.3431C99.4254 96.2531 95.7347 93.1025 94.9245 89.0517Z" fill="#EE4035"/>
<path d="M92.3115 70.3278L77.3685 85.2708C73.4977 89.1416 68.0967 90.4019 63.2357 89.2316C62.3355 93.2824 58.7348 96.253 54.4139 96.253C49.4629 96.253 45.4121 92.2022 45.4121 87.2512C45.4121 83.0204 48.3827 79.4197 52.3435 78.5195C51.0832 73.4785 52.3435 68.0774 56.2143 64.2066L56.7544 63.6665L63.4157 70.3278L62.8756 70.8679C60.7152 73.0284 60.7152 76.5391 62.8756 78.6995C65.036 80.86 68.5467 80.86 70.7072 78.6995L85.6502 63.7565L92.3115 70.3278Z" fill="#4F91CD"/>
<path d="M59.5087 130.432C59.5087 130.965 59.45 131.461 59.3327 131.92C59.226 132.379 59.0287 132.784 58.7407 133.136C58.4634 133.477 58.0847 133.749 57.6047 133.952C57.1354 134.144 56.5434 134.24 55.8287 134.24C55.466 134.24 55.13 134.208 54.8207 134.144C54.522 134.091 54.25 134.021 54.0047 133.936C53.7594 133.84 53.546 133.744 53.3647 133.648C53.1834 133.541 53.0394 133.44 52.9327 133.344L53.5407 132.112C53.7647 132.272 54.0527 132.443 54.4047 132.624C54.7674 132.795 55.2154 132.88 55.7487 132.88C56.5167 132.88 57.0767 132.688 57.4287 132.304C57.7807 131.909 57.9567 131.237 57.9567 130.288V122.912H59.5087V130.432ZM69.4287 129.84C69.4287 130.501 69.3327 131.099 69.1407 131.632C68.9487 132.165 68.6767 132.624 68.3247 133.008C67.9834 133.392 67.5727 133.691 67.0927 133.904C66.6127 134.107 66.09 134.208 65.5247 134.208C64.9594 134.208 64.4367 134.107 63.9567 133.904C63.4767 133.691 63.0607 133.392 62.7087 133.008C62.3674 132.624 62.1007 132.165 61.9087 131.632C61.7167 131.099 61.6207 130.501 61.6207 129.84C61.6207 129.189 61.7167 128.597 61.9087 128.064C62.1007 127.52 62.3674 127.056 62.7087 126.672C63.0607 126.288 63.4767 125.995 63.9567 125.792C64.4367 125.579 64.9594 125.472 65.5247 125.472C66.09 125.472 66.6127 125.579 67.0927 125.792C67.5727 125.995 67.9834 126.288 68.3247 126.672C68.6767 127.056 68.9487 127.52 69.1407 128.064C69.3327 128.597 69.4287 129.189 69.4287 129.84ZM67.8767 129.84C67.8767 128.901 67.6634 128.16 67.2367 127.616C66.8207 127.061 66.25 126.784 65.5247 126.784C64.7994 126.784 64.2234 127.061 63.7967 127.616C63.3807 128.16 63.1727 128.901 63.1727 129.84C63.1727 130.779 63.3807 131.525 63.7967 132.08C64.2234 132.624 64.7994 132.896 65.5247 132.896C66.25 132.896 66.8207 132.624 67.2367 132.08C67.6634 131.525 67.8767 130.779 67.8767 129.84ZM78.8662 129.84C78.8662 130.501 78.7702 131.099 78.5782 131.632C78.3862 132.165 78.1142 132.624 77.7622 133.008C77.4209 133.392 77.0102 133.691 76.5302 133.904C76.0502 134.107 75.5275 134.208 74.9622 134.208C74.3969 134.208 73.8742 134.107 73.3942 133.904C72.9142 133.691 72.4982 133.392 72.1462 133.008C71.8049 132.624 71.5382 132.165 71.3462 131.632C71.1542 131.099 71.0582 130.501 71.0582 129.84C71.0582 129.189 71.1542 128.597 71.3462 128.064C71.5382 127.52 71.8049 127.056 72.1462 126.672C72.4982 126.288 72.9142 125.995 73.3942 125.792C73.8742 125.579 74.3969 125.472 74.9622 125.472C75.5275 125.472 76.0502 125.579 76.5302 125.792C77.0102 125.995 77.4209 126.288 77.7622 126.672C78.1142 127.056 78.3862 127.52 78.5782 128.064C78.7702 128.597 78.8662 129.189 78.8662 129.84ZM77.3142 129.84C77.3142 128.901 77.1009 128.16 76.6742 127.616C76.2582 127.061 75.6875 126.784 74.9622 126.784C74.2369 126.784 73.6609 127.061 73.2342 127.616C72.8182 128.16 72.6102 128.901 72.6102 129.84C72.6102 130.779 72.8182 131.525 73.2342 132.08C73.6609 132.624 74.2369 132.896 74.9622 132.896C75.6875 132.896 76.2582 132.624 76.6742 132.08C77.1009 131.525 77.3142 130.779 77.3142 129.84ZM80.9597 125.92C81.301 125.835 81.749 125.744 82.3037 125.648C82.869 125.552 83.5197 125.504 84.2557 125.504C84.789 125.504 85.237 125.579 85.5997 125.728C85.9624 125.867 86.2664 126.075 86.5117 126.352C86.5864 126.299 86.7037 126.224 86.8637 126.128C87.0237 126.032 87.221 125.941 87.4557 125.856C87.6904 125.76 87.9517 125.68 88.2397 125.616C88.5277 125.541 88.837 125.504 89.1677 125.504C89.8077 125.504 90.3304 125.6 90.7357 125.792C91.141 125.973 91.4557 126.235 91.6797 126.576C91.9144 126.917 92.069 127.323 92.1437 127.792C92.229 128.261 92.2717 128.773 92.2717 129.328V134H90.7837V129.648C90.7837 129.157 90.757 128.736 90.7037 128.384C90.661 128.032 90.5704 127.739 90.4317 127.504C90.3037 127.269 90.1224 127.099 89.8877 126.992C89.6637 126.875 89.3704 126.816 89.0077 126.816C88.5064 126.816 88.0904 126.885 87.7597 127.024C87.4397 127.152 87.221 127.269 87.1037 127.376C87.189 127.653 87.253 127.957 87.2957 128.288C87.3384 128.619 87.3597 128.965 87.3597 129.328V134H85.8717V129.648C85.8717 129.157 85.845 128.736 85.7917 128.384C85.7384 128.032 85.6424 127.739 85.5037 127.504C85.3757 127.269 85.1944 127.099 84.9597 126.992C84.7357 126.875 84.4477 126.816 84.0957 126.816C83.9464 126.816 83.7864 126.821 83.6157 126.832C83.445 126.843 83.2797 126.859 83.1197 126.88C82.9704 126.891 82.8317 126.907 82.7037 126.928C82.5757 126.949 82.4904 126.965 82.4477 126.976V134H80.9597V125.92ZM97.2369 134.16C96.3196 134.139 95.6689 133.941 95.2849 133.568C94.9009 133.195 94.7089 132.613 94.7089 131.824V121.84L96.1969 121.584V131.584C96.1969 131.829 96.2183 132.032 96.2609 132.192C96.3036 132.352 96.3729 132.48 96.4689 132.576C96.5649 132.672 96.6929 132.747 96.8529 132.8C97.0129 132.843 97.2103 132.88 97.4449 132.912L97.2369 134.16ZM101.932 132.928C102.284 132.928 102.593 132.923 102.86 132.912C103.137 132.891 103.367 132.859 103.548 132.816V130.336C103.441 130.283 103.265 130.24 103.02 130.208C102.785 130.165 102.497 130.144 102.156 130.144C101.932 130.144 101.692 130.16 101.436 130.192C101.191 130.224 100.961 130.293 100.748 130.4C100.545 130.496 100.375 130.635 100.236 130.816C100.097 130.987 100.028 131.216 100.028 131.504C100.028 132.037 100.199 132.411 100.54 132.624C100.881 132.827 101.345 132.928 101.932 132.928ZM101.804 125.472C102.401 125.472 102.903 125.552 103.308 125.712C103.724 125.861 104.055 126.08 104.3 126.368C104.556 126.645 104.737 126.981 104.844 127.376C104.951 127.76 105.004 128.187 105.004 128.656V133.856C104.876 133.877 104.695 133.909 104.46 133.952C104.236 133.984 103.98 134.016 103.692 134.048C103.404 134.08 103.089 134.107 102.748 134.128C102.417 134.16 102.087 134.176 101.756 134.176C101.287 134.176 100.855 134.128 100.46 134.032C100.065 133.936 99.7239 133.787 99.4359 133.584C99.1479 133.371 98.9239 133.093 98.7639 132.752C98.6039 132.411 98.5239 132 98.5239 131.52C98.5239 131.061 98.6146 130.667 98.7959 130.336C98.9879 130.005 99.2439 129.739 99.5639 129.536C99.8839 129.333 100.257 129.184 100.684 129.088C101.111 128.992 101.559 128.944 102.028 128.944C102.177 128.944 102.332 128.955 102.492 128.976C102.652 128.987 102.801 129.008 102.94 129.04C103.089 129.061 103.217 129.083 103.324 129.104C103.431 129.125 103.505 129.141 103.548 129.152V128.736C103.548 128.491 103.521 128.251 103.468 128.016C103.415 127.771 103.319 127.557 103.18 127.376C103.041 127.184 102.849 127.035 102.604 126.928C102.369 126.811 102.06 126.752 101.676 126.752C101.185 126.752 100.753 126.789 100.38 126.864C100.017 126.928 99.7453 126.997 99.5639 127.072L99.3879 125.84C99.5799 125.755 99.8999 125.675 100.348 125.6C100.796 125.515 101.281 125.472 101.804 125.472Z" fill="#212529"/>
</svg>
