<svg width="159" height="159" viewBox="0 0 159 159" fill="none" xmlns="http://www.w3.org/2000/svg">
<path d="M0 32C0 14.3269 14.3269 0 32 0H127C144.673 0 159 14.3269 159 32V127C159 144.673 144.673 159 127 159H32C14.3269 159 0 144.673 0 127V32Z" fill="white"/>
<g clip-path="url(#clip0_3276_76355)">
<path d="M42.5042 37H116.46C121.141 37 124.93 41.3956 124.93 46.8259V79.5785C124.93 85.0085 121.141 89.4045 116.46 89.4045H89.939L93.5794 99.7472L77.5697 89.4045H42.5418C37.8616 89.4045 34.0725 85.0089 34.0725 79.5785V46.8259C34.0354 41.4388 37.8239 37 42.5042 37Z" fill="#7F54B3"/>
<path d="M39.2468 45.9558C39.7638 45.1417 40.5395 44.7132 41.5736 44.6275C43.4572 44.4561 44.5283 45.4845 44.7868 47.7127C45.9318 56.6686 47.1875 64.2529 48.5173 70.4664L56.6057 52.5979C57.3444 50.9696 58.2677 50.1126 59.3758 50.0269C61.0009 49.8983 61.9981 51.0981 62.4043 53.6263C63.3277 59.3255 64.5096 64.1675 65.913 68.281C66.8733 57.3968 68.4984 49.5556 70.7885 44.7132C71.3425 43.5134 72.155 42.9135 73.2261 42.8278C74.0756 42.7421 74.8512 43.0421 75.5529 43.6848C76.2547 44.3276 76.624 45.1417 76.6979 46.1273C76.7348 46.8986 76.624 47.5413 76.3285 48.1841C74.8881 51.2693 73.7062 56.4544 72.746 63.6529C71.8227 70.6376 71.4903 76.0795 71.7119 79.9789C71.7858 81.0502 71.638 81.9929 71.2687 82.807C70.8255 83.7497 70.1607 84.2639 69.3112 84.3496C68.3509 84.4353 67.3537 83.9212 66.3935 82.7642C62.9586 78.6934 60.2255 72.6088 58.2312 64.5098C55.8305 69.9945 54.0578 74.1085 52.9129 76.8508C50.7338 81.6928 48.8871 84.1782 47.3358 84.3066C46.3386 84.3923 45.4891 83.4068 44.7504 81.35C42.8668 75.7364 40.8354 64.8954 38.6563 48.8267C38.5085 47.7126 38.7301 46.7271 39.2472 45.9557L39.2468 45.9558ZM118.619 52.6832C117.289 49.9837 115.332 48.3552 112.71 47.7124C112.008 47.541 111.343 47.4553 110.715 47.4553C107.17 47.4553 104.289 49.5979 102.036 53.883C100.115 57.5252 99.1551 61.5533 99.1551 65.9666C99.1551 69.2661 99.7461 72.0941 100.928 74.451C102.258 77.1506 104.215 78.7791 106.837 79.4218C107.539 79.5932 108.204 79.6789 108.832 79.6789C112.414 79.6789 115.295 77.5364 117.511 73.2513C119.432 69.5662 120.392 65.5381 120.392 61.1248C120.429 57.7825 119.801 54.9974 118.619 52.6832ZM113.965 64.5528C113.448 67.3809 112.525 69.4804 111.158 70.8948C110.087 72.0089 109.09 72.4802 108.167 72.266C107.28 72.0517 106.542 71.1519 105.988 69.4807C105.545 68.1524 105.323 66.824 105.323 65.5814C105.323 64.5101 105.397 63.4388 105.581 62.4533C105.914 60.6964 106.542 58.9824 107.539 57.354C108.758 55.2543 110.05 54.3973 111.38 54.6973C112.267 54.9116 113.005 55.8114 113.559 57.4826C114.002 58.8109 114.224 60.1393 114.224 61.3819C114.224 62.496 114.15 63.5672 113.965 64.5528ZM95.4983 52.6832C94.1687 49.9837 92.1743 48.3552 89.5891 47.7124C88.8873 47.541 88.2225 47.4553 87.5947 47.4553C84.049 47.4553 81.1683 49.5979 78.9153 53.883C76.9947 57.5252 76.0345 61.5533 76.0345 65.9666C76.0345 69.2661 76.6254 72.0941 77.8073 74.451C79.1369 77.1506 81.0944 78.7791 83.7165 79.4218C84.4183 79.5932 85.0831 79.6789 85.711 79.6789C89.2934 79.6789 92.1742 77.5364 94.3903 73.2513C96.3109 69.5662 97.2712 65.5381 97.2712 61.1248C97.2712 57.7825 96.6802 54.9974 95.4983 52.6832ZM90.8078 64.5528C90.2908 67.3809 89.3674 69.4804 88.0009 70.8948C86.9298 72.0089 85.9326 72.4802 85.0092 72.266C84.1228 72.0517 83.3841 71.1519 82.8302 69.4807C82.3869 68.1524 82.1653 66.824 82.1653 65.5814C82.1653 64.5101 82.2392 63.4388 82.4239 62.4533C82.7563 60.6964 83.3842 58.9824 84.3813 57.354C85.6001 55.2543 86.8928 54.3973 88.2225 54.6973C89.109 54.9116 89.8476 55.8114 90.4016 57.4826C90.8448 58.8109 91.0664 60.1393 91.0664 61.3819C91.1034 62.496 90.9925 63.5672 90.8078 64.5528Z" fill="white"/>
</g>
<path d="M31.1666 126.48C30.7186 127.909 30.2652 129.232 29.8066 130.448C29.3479 131.664 28.8892 132.848 28.4306 134H26.8786C26.3132 132.368 25.8119 130.645 25.3746 128.832C24.9479 127.019 24.5479 125.045 24.1746 122.912H25.8066C25.9559 123.744 26.1106 124.576 26.2706 125.408C26.4306 126.24 26.5959 127.051 26.7666 127.84C26.9372 128.619 27.1079 129.365 27.2786 130.08C27.4492 130.795 27.6252 131.456 27.8066 132.064C28.2332 130.944 28.6866 129.717 29.1666 128.384C29.6466 127.04 30.0946 125.653 30.5106 124.224H31.8546C32.2706 125.653 32.7239 127.04 33.2146 128.384C33.7052 129.717 34.1639 130.944 34.5906 132.064C34.7612 131.467 34.9319 130.811 35.1026 130.096C35.2732 129.381 35.4386 128.635 35.5986 127.856C35.7692 127.067 35.9346 126.256 36.0946 125.424C36.2546 124.581 36.4092 123.744 36.5586 122.912H38.1426C37.7586 125.045 37.3479 127.019 36.9106 128.832C36.4839 130.645 35.9932 132.368 35.4386 134H33.8866C33.4172 132.848 32.9586 131.664 32.5106 130.448C32.0626 129.232 31.6146 127.909 31.1666 126.48ZM46.8506 129.84C46.8506 130.501 46.7546 131.099 46.5626 131.632C46.3706 132.165 46.0986 132.624 45.7466 133.008C45.4052 133.392 44.9946 133.691 44.5146 133.904C44.0346 134.107 43.5119 134.208 42.9466 134.208C42.3812 134.208 41.8586 134.107 41.3786 133.904C40.8986 133.691 40.4826 133.392 40.1306 133.008C39.7892 132.624 39.5226 132.165 39.3306 131.632C39.1386 131.099 39.0426 130.501 39.0426 129.84C39.0426 129.189 39.1386 128.597 39.3306 128.064C39.5226 127.52 39.7892 127.056 40.1306 126.672C40.4826 126.288 40.8986 125.995 41.3786 125.792C41.8586 125.579 42.3812 125.472 42.9466 125.472C43.5119 125.472 44.0346 125.579 44.5146 125.792C44.9946 125.995 45.4052 126.288 45.7466 126.672C46.0986 127.056 46.3706 127.52 46.5626 128.064C46.7546 128.597 46.8506 129.189 46.8506 129.84ZM45.2986 129.84C45.2986 128.901 45.0852 128.16 44.6586 127.616C44.2426 127.061 43.6719 126.784 42.9466 126.784C42.2212 126.784 41.6452 127.061 41.2186 127.616C40.8026 128.16 40.5946 128.901 40.5946 129.84C40.5946 130.779 40.8026 131.525 41.2186 132.08C41.6452 132.624 42.2212 132.896 42.9466 132.896C43.6719 132.896 44.2426 132.624 44.6586 132.08C45.0852 131.525 45.2986 130.779 45.2986 129.84ZM56.2881 129.84C56.2881 130.501 56.1921 131.099 56.0001 131.632C55.8081 132.165 55.5361 132.624 55.1841 133.008C54.8427 133.392 54.4321 133.691 53.9521 133.904C53.4721 134.107 52.9494 134.208 52.3841 134.208C51.8187 134.208 51.2961 134.107 50.8161 133.904C50.3361 133.691 49.9201 133.392 49.5681 133.008C49.2267 132.624 48.9601 132.165 48.7681 131.632C48.5761 131.099 48.4801 130.501 48.4801 129.84C48.4801 129.189 48.5761 128.597 48.7681 128.064C48.9601 127.52 49.2267 127.056 49.5681 126.672C49.9201 126.288 50.3361 125.995 50.8161 125.792C51.2961 125.579 51.8187 125.472 52.3841 125.472C52.9494 125.472 53.4721 125.579 53.9521 125.792C54.4321 125.995 54.8427 126.288 55.1841 126.672C55.5361 127.056 55.8081 127.52 56.0001 128.064C56.1921 128.597 56.2881 129.189 56.2881 129.84ZM54.7361 129.84C54.7361 128.901 54.5227 128.16 54.0961 127.616C53.6801 127.061 53.1094 126.784 52.3841 126.784C51.6587 126.784 51.0827 127.061 50.6561 127.616C50.2401 128.16 50.0321 128.901 50.0321 129.84C50.0321 130.779 50.2401 131.525 50.6561 132.08C51.0827 132.624 51.6587 132.896 52.3841 132.896C53.1094 132.896 53.6801 132.624 54.0961 132.08C54.5227 131.525 54.7361 130.779 54.7361 129.84ZM63.2456 134.24C62.4669 134.24 61.7576 134.112 61.1176 133.856C60.4776 133.6 59.9282 133.227 59.4696 132.736C59.0109 132.245 58.6536 131.643 58.3976 130.928C58.1522 130.203 58.0296 129.376 58.0296 128.448C58.0296 127.52 58.1682 126.699 58.4456 125.984C58.7336 125.259 59.1176 124.651 59.5976 124.16C60.0776 123.669 60.6376 123.296 61.2776 123.04C61.9176 122.784 62.6002 122.656 63.3256 122.656C63.7842 122.656 64.1949 122.688 64.5576 122.752C64.9309 122.816 65.2509 122.891 65.5176 122.976C65.7949 123.061 66.0189 123.147 66.1896 123.232C66.3602 123.317 66.4776 123.381 66.5416 123.424L66.0936 124.704C65.9976 124.64 65.8589 124.571 65.6776 124.496C65.4962 124.421 65.2882 124.347 65.0536 124.272C64.8296 124.197 64.5789 124.139 64.3016 124.096C64.0349 124.043 63.7629 124.016 63.4856 124.016C62.8989 124.016 62.3709 124.117 61.9016 124.32C61.4322 124.523 61.0322 124.816 60.7016 125.2C60.3709 125.584 60.1149 126.053 59.9336 126.608C59.7629 127.152 59.6776 127.765 59.6776 128.448C59.6776 129.109 59.7522 129.712 59.9016 130.256C60.0616 130.8 60.2962 131.269 60.6056 131.664C60.9149 132.048 61.2989 132.347 61.7576 132.56C62.2269 132.773 62.7709 132.88 63.3896 132.88C64.1042 132.88 64.6962 132.805 65.1656 132.656C65.6349 132.507 65.9869 132.373 66.2216 132.256L66.6216 133.536C66.5469 133.589 66.4136 133.659 66.2216 133.744C66.0296 133.819 65.7896 133.893 65.5016 133.968C65.2136 134.043 64.8776 134.107 64.4936 134.16C64.1096 134.213 63.6936 134.24 63.2456 134.24ZM75.4131 129.84C75.4131 130.501 75.3171 131.099 75.1251 131.632C74.9331 132.165 74.6611 132.624 74.3091 133.008C73.9677 133.392 73.5571 133.691 73.0771 133.904C72.5971 134.107 72.0744 134.208 71.5091 134.208C70.9437 134.208 70.4211 134.107 69.9411 133.904C69.4611 133.691 69.0451 133.392 68.6931 133.008C68.3517 132.624 68.0851 132.165 67.8931 131.632C67.7011 131.099 67.6051 130.501 67.6051 129.84C67.6051 129.189 67.7011 128.597 67.8931 128.064C68.0851 127.52 68.3517 127.056 68.6931 126.672C69.0451 126.288 69.4611 125.995 69.9411 125.792C70.4211 125.579 70.9437 125.472 71.5091 125.472C72.0744 125.472 72.5971 125.579 73.0771 125.792C73.5571 125.995 73.9677 126.288 74.3091 126.672C74.6611 127.056 74.9331 127.52 75.1251 128.064C75.3171 128.597 75.4131 129.189 75.4131 129.84ZM73.8611 129.84C73.8611 128.901 73.6477 128.16 73.2211 127.616C72.8051 127.061 72.2344 126.784 71.5091 126.784C70.7837 126.784 70.2077 127.061 69.7811 127.616C69.3651 128.16 69.1571 128.901 69.1571 129.84C69.1571 130.779 69.3651 131.525 69.7811 132.08C70.2077 132.624 70.7837 132.896 71.5091 132.896C72.2344 132.896 72.8051 132.624 73.2211 132.08C73.6477 131.525 73.8611 130.779 73.8611 129.84ZM77.5066 125.92C77.8479 125.835 78.2959 125.744 78.8506 125.648C79.4159 125.552 80.0666 125.504 80.8026 125.504C81.3359 125.504 81.7839 125.579 82.1466 125.728C82.5092 125.867 82.8132 126.075 83.0586 126.352C83.1332 126.299 83.2506 126.224 83.4106 126.128C83.5706 126.032 83.7679 125.941 84.0026 125.856C84.2372 125.76 84.4986 125.68 84.7866 125.616C85.0746 125.541 85.3839 125.504 85.7146 125.504C86.3546 125.504 86.8772 125.6 87.2826 125.792C87.6879 125.973 88.0026 126.235 88.2266 126.576C88.4612 126.917 88.6159 127.323 88.6906 127.792C88.7759 128.261 88.8186 128.773 88.8186 129.328V134H87.3306V129.648C87.3306 129.157 87.3039 128.736 87.2506 128.384C87.2079 128.032 87.1172 127.739 86.9786 127.504C86.8506 127.269 86.6692 127.099 86.4346 126.992C86.2106 126.875 85.9172 126.816 85.5546 126.816C85.0532 126.816 84.6372 126.885 84.3066 127.024C83.9866 127.152 83.7679 127.269 83.6506 127.376C83.7359 127.653 83.7999 127.957 83.8426 128.288C83.8852 128.619 83.9066 128.965 83.9066 129.328V134H82.4186V129.648C82.4186 129.157 82.3919 128.736 82.3386 128.384C82.2852 128.032 82.1892 127.739 82.0506 127.504C81.9226 127.269 81.7412 127.099 81.5066 126.992C81.2826 126.875 80.9946 126.816 80.6426 126.816C80.4932 126.816 80.3332 126.821 80.1626 126.832C79.9919 126.843 79.8266 126.859 79.6666 126.88C79.5172 126.891 79.3786 126.907 79.2506 126.928C79.1226 126.949 79.0372 126.965 78.9946 126.976V134H77.5066V125.92ZM91.2878 125.92C91.6291 125.835 92.0771 125.744 92.6318 125.648C93.1971 125.552 93.8478 125.504 94.5838 125.504C95.1171 125.504 95.5651 125.579 95.9278 125.728C96.2905 125.867 96.5945 126.075 96.8398 126.352C96.9145 126.299 97.0318 126.224 97.1918 126.128C97.3518 126.032 97.5491 125.941 97.7838 125.856C98.0185 125.76 98.2798 125.68 98.5678 125.616C98.8558 125.541 99.1651 125.504 99.4958 125.504C100.136 125.504 100.658 125.6 101.064 125.792C101.469 125.973 101.784 126.235 102.008 126.576C102.242 126.917 102.397 127.323 102.472 127.792C102.557 128.261 102.6 128.773 102.6 129.328V134H101.112V129.648C101.112 129.157 101.085 128.736 101.032 128.384C100.989 128.032 100.898 127.739 100.76 127.504C100.632 127.269 100.45 127.099 100.216 126.992C99.9918 126.875 99.6985 126.816 99.3358 126.816C98.8345 126.816 98.4185 126.885 98.0878 127.024C97.7678 127.152 97.5491 127.269 97.4318 127.376C97.5171 127.653 97.5811 127.957 97.6238 128.288C97.6665 128.619 97.6878 128.965 97.6878 129.328V134H96.1998V129.648C96.1998 129.157 96.1731 128.736 96.1198 128.384C96.0665 128.032 95.9705 127.739 95.8318 127.504C95.7038 127.269 95.5225 127.099 95.2878 126.992C95.0638 126.875 94.7758 126.816 94.4238 126.816C94.2745 126.816 94.1145 126.821 93.9438 126.832C93.7731 126.843 93.6078 126.859 93.4478 126.88C93.2985 126.891 93.1598 126.907 93.0318 126.928C92.9038 126.949 92.8185 126.965 92.7758 126.976V134H91.2878V125.92ZM104.605 129.856C104.605 129.12 104.712 128.48 104.925 127.936C105.138 127.381 105.421 126.923 105.773 126.56C106.125 126.197 106.53 125.925 106.989 125.744C107.448 125.563 107.917 125.472 108.397 125.472C109.517 125.472 110.376 125.824 110.973 126.528C111.57 127.221 111.869 128.283 111.869 129.712C111.869 129.776 111.869 129.861 111.869 129.968C111.869 130.064 111.864 130.155 111.853 130.24H106.157C106.221 131.104 106.472 131.76 106.909 132.208C107.346 132.656 108.029 132.88 108.957 132.88C109.48 132.88 109.917 132.837 110.269 132.752C110.632 132.656 110.904 132.565 111.085 132.48L111.293 133.728C111.112 133.824 110.792 133.925 110.333 134.032C109.885 134.139 109.373 134.192 108.797 134.192C108.072 134.192 107.442 134.085 106.909 133.872C106.386 133.648 105.954 133.344 105.613 132.96C105.272 132.576 105.016 132.123 104.845 131.6C104.685 131.067 104.605 130.485 104.605 129.856ZM110.317 129.04C110.328 128.368 110.157 127.819 109.805 127.392C109.464 126.955 108.989 126.736 108.381 126.736C108.04 126.736 107.736 126.805 107.469 126.944C107.213 127.072 106.994 127.243 106.813 127.456C106.632 127.669 106.488 127.915 106.381 128.192C106.285 128.469 106.221 128.752 106.189 129.04H110.317ZM117.079 125.504C117.207 125.504 117.351 125.515 117.511 125.536C117.681 125.547 117.847 125.568 118.007 125.6C118.167 125.621 118.311 125.648 118.439 125.68C118.577 125.701 118.679 125.723 118.743 125.744L118.487 127.04C118.369 126.997 118.172 126.949 117.895 126.896C117.628 126.832 117.281 126.8 116.855 126.8C116.577 126.8 116.3 126.832 116.023 126.896C115.756 126.949 115.58 126.987 115.495 127.008V134H114.007V126.032C114.359 125.904 114.796 125.787 115.319 125.68C115.841 125.563 116.428 125.504 117.079 125.504ZM123.794 134.192C123.122 134.192 122.53 134.085 122.018 133.872C121.517 133.659 121.09 133.36 120.738 132.976C120.397 132.592 120.141 132.139 119.97 131.616C119.8 131.083 119.714 130.496 119.714 129.856C119.714 129.216 119.805 128.629 119.986 128.096C120.178 127.563 120.445 127.104 120.786 126.72C121.128 126.325 121.544 126.021 122.034 125.808C122.536 125.584 123.09 125.472 123.698 125.472C124.072 125.472 124.445 125.504 124.818 125.568C125.192 125.632 125.549 125.733 125.89 125.872L125.554 127.136C125.33 127.029 125.069 126.944 124.77 126.88C124.482 126.816 124.173 126.784 123.842 126.784C123.01 126.784 122.37 127.045 121.922 127.568C121.485 128.091 121.266 128.853 121.266 129.856C121.266 130.304 121.314 130.715 121.41 131.088C121.517 131.461 121.677 131.781 121.89 132.048C122.114 132.315 122.397 132.523 122.738 132.672C123.08 132.811 123.496 132.88 123.986 132.88C124.381 132.88 124.738 132.843 125.058 132.768C125.378 132.693 125.629 132.613 125.81 132.528L126.018 133.776C125.933 133.829 125.81 133.883 125.65 133.936C125.49 133.979 125.309 134.016 125.106 134.048C124.904 134.091 124.685 134.123 124.45 134.144C124.226 134.176 124.008 134.192 123.794 134.192ZM127.152 129.856C127.152 129.12 127.259 128.48 127.472 127.936C127.685 127.381 127.968 126.923 128.32 126.56C128.672 126.197 129.077 125.925 129.536 125.744C129.995 125.563 130.464 125.472 130.944 125.472C132.064 125.472 132.923 125.824 133.52 126.528C134.117 127.221 134.416 128.283 134.416 129.712C134.416 129.776 134.416 129.861 134.416 129.968C134.416 130.064 134.411 130.155 134.4 130.24H128.704C128.768 131.104 129.019 131.76 129.456 132.208C129.893 132.656 130.576 132.88 131.504 132.88C132.027 132.88 132.464 132.837 132.816 132.752C133.179 132.656 133.451 132.565 133.632 132.48L133.84 133.728C133.659 133.824 133.339 133.925 132.88 134.032C132.432 134.139 131.92 134.192 131.344 134.192C130.619 134.192 129.989 134.085 129.456 133.872C128.933 133.648 128.501 133.344 128.16 132.96C127.819 132.576 127.563 132.123 127.392 131.6C127.232 131.067 127.152 130.485 127.152 129.856ZM132.864 129.04C132.875 128.368 132.704 127.819 132.352 127.392C132.011 126.955 131.536 126.736 130.928 126.736C130.587 126.736 130.283 126.805 130.016 126.944C129.76 127.072 129.541 127.243 129.36 127.456C129.179 127.669 129.035 127.915 128.928 128.192C128.832 128.469 128.768 128.752 128.736 129.04H132.864Z" fill="#212529"/>
<defs>
<clipPath id="clip0_3276_76355">
<rect width="90.8571" height="63" fill="white" transform="translate(34.0723 37)"/>
</clipPath>
</defs>
</svg>
