<svg width="159" height="159" viewBox="0 0 159 159" fill="none" xmlns="http://www.w3.org/2000/svg">
<rect width="159" height="159" rx="32" fill="white"/>
<g clip-path="url(#clip0_3276_76351)">
<path fill-rule="evenodd" clip-rule="evenodd" d="M128.5 35L97.5484 96H68.4762L81.4294 70.7189H80.8483C70.1621 84.7042 54.2179 93.9107 31.5 96V71.069C31.5 71.069 46.0332 70.2036 54.5769 61.1478H31.5V35.0005H57.4359V56.5063L58.018 56.5039L68.6164 35.0005H88.2311V56.3699L88.8132 56.369L99.809 35H128.5Z" fill="#0170F7"/>
</g>
<path d="M54.3697 126.48C53.9217 127.909 53.4684 129.232 53.0097 130.448C52.551 131.664 52.0924 132.848 51.6337 134H50.0817C49.5164 132.368 49.015 130.645 48.5777 128.832C48.151 127.019 47.751 125.045 47.3777 122.912H49.0097C49.159 123.744 49.3137 124.576 49.4737 125.408C49.6337 126.24 49.799 127.051 49.9697 127.84C50.1404 128.619 50.311 129.365 50.4817 130.08C50.6524 130.795 50.8284 131.456 51.0097 132.064C51.4364 130.944 51.8897 129.717 52.3697 128.384C52.8497 127.04 53.2977 125.653 53.7137 124.224H55.0577C55.4737 125.653 55.927 127.04 56.4177 128.384C56.9084 129.717 57.367 130.944 57.7937 132.064C57.9644 131.467 58.135 130.811 58.3057 130.096C58.4764 129.381 58.6417 128.635 58.8017 127.856C58.9724 127.067 59.1377 126.256 59.2977 125.424C59.4577 124.581 59.6124 123.744 59.7617 122.912H61.3457C60.9617 125.045 60.551 127.019 60.1137 128.832C59.687 130.645 59.1964 132.368 58.6417 134H57.0897C56.6204 132.848 56.1617 131.664 55.7137 130.448C55.2657 129.232 54.8177 127.909 54.3697 126.48ZM62.2457 129.856C62.2457 129.12 62.3524 128.48 62.5657 127.936C62.779 127.381 63.0617 126.923 63.4137 126.56C63.7657 126.197 64.171 125.925 64.6297 125.744C65.0884 125.563 65.5577 125.472 66.0377 125.472C67.1577 125.472 68.0164 125.824 68.6137 126.528C69.211 127.221 69.5097 128.283 69.5097 129.712C69.5097 129.776 69.5097 129.861 69.5097 129.968C69.5097 130.064 69.5044 130.155 69.4937 130.24H63.7977C63.8617 131.104 64.1124 131.76 64.5497 132.208C64.987 132.656 65.6697 132.88 66.5977 132.88C67.1204 132.88 67.5577 132.837 67.9097 132.752C68.2724 132.656 68.5444 132.565 68.7257 132.48L68.9337 133.728C68.7524 133.824 68.4324 133.925 67.9737 134.032C67.5257 134.139 67.0137 134.192 66.4377 134.192C65.7124 134.192 65.083 134.085 64.5497 133.872C64.027 133.648 63.595 133.344 63.2537 132.96C62.9124 132.576 62.6564 132.123 62.4857 131.6C62.3257 131.067 62.2457 130.485 62.2457 129.856ZM67.9577 129.04C67.9684 128.368 67.7977 127.819 67.4457 127.392C67.1044 126.955 66.6297 126.736 66.0217 126.736C65.6804 126.736 65.3764 126.805 65.1097 126.944C64.8537 127.072 64.635 127.243 64.4537 127.456C64.2724 127.669 64.1284 127.915 64.0217 128.192C63.9257 128.469 63.8617 128.752 63.8297 129.04H67.9577ZM73.1352 126.048C73.3165 125.931 73.5885 125.808 73.9512 125.68C74.3245 125.552 74.7512 125.488 75.2312 125.488C75.8285 125.488 76.3565 125.595 76.8152 125.808C77.2845 126.021 77.6792 126.32 77.9992 126.704C78.3192 127.088 78.5592 127.547 78.7192 128.08C78.8899 128.613 78.9752 129.2 78.9752 129.84C78.9752 130.512 78.8739 131.12 78.6712 131.664C78.4792 132.197 78.2019 132.651 77.8392 133.024C77.4765 133.397 77.0392 133.685 76.5272 133.888C76.0152 134.091 75.4392 134.192 74.7992 134.192C74.1059 134.192 73.4925 134.144 72.9592 134.048C72.4259 133.952 71.9885 133.856 71.6472 133.76V121.84L73.1352 121.584V126.048ZM73.1352 132.704C73.2845 132.747 73.4925 132.789 73.7592 132.832C74.0365 132.864 74.3779 132.88 74.7832 132.88C75.5832 132.88 76.2232 132.619 76.7032 132.096C77.1832 131.563 77.4232 130.811 77.4232 129.84C77.4232 129.413 77.3805 129.013 77.2952 128.64C77.2099 128.267 77.0712 127.947 76.8792 127.68C76.6872 127.403 76.4365 127.189 76.1272 127.04C75.8285 126.88 75.4659 126.8 75.0392 126.8C74.6339 126.8 74.2605 126.869 73.9192 127.008C73.5779 127.147 73.3165 127.291 73.1352 127.44V132.704ZM84.3171 121.584C84.6904 121.584 85.0104 121.611 85.2771 121.664C85.5437 121.707 85.7357 121.749 85.8531 121.792L85.6451 123.072C85.5277 123.029 85.3677 122.987 85.1651 122.944C84.9624 122.891 84.7171 122.864 84.4291 122.864C83.7357 122.864 83.2504 123.056 82.9731 123.44C82.6957 123.813 82.5571 124.32 82.5571 124.96V125.68H85.7571V126.928H82.5571V134H81.0691V124.928C81.0691 123.861 81.3304 123.04 81.8531 122.464C82.3757 121.877 83.1971 121.584 84.3171 121.584ZM89.8051 134.16C88.8877 134.139 88.2371 133.941 87.8531 133.568C87.4691 133.195 87.2771 132.613 87.2771 131.824V121.84L88.7651 121.584V131.584C88.7651 131.829 88.7864 132.032 88.8291 132.192C88.8717 132.352 88.9411 132.48 89.0371 132.576C89.1331 132.672 89.2611 132.747 89.4211 132.8C89.5811 132.843 89.7784 132.88 90.0131 132.912L89.8051 134.16ZM99.0224 129.84C99.0224 130.501 98.9264 131.099 98.7344 131.632C98.5424 132.165 98.2704 132.624 97.9184 133.008C97.5771 133.392 97.1664 133.691 96.6864 133.904C96.2064 134.107 95.6838 134.208 95.1184 134.208C94.5531 134.208 94.0304 134.107 93.5504 133.904C93.0704 133.691 92.6544 133.392 92.3024 133.008C91.9611 132.624 91.6944 132.165 91.5024 131.632C91.3104 131.099 91.2144 130.501 91.2144 129.84C91.2144 129.189 91.3104 128.597 91.5024 128.064C91.6944 127.52 91.9611 127.056 92.3024 126.672C92.6544 126.288 93.0704 125.995 93.5504 125.792C94.0304 125.579 94.5531 125.472 95.1184 125.472C95.6838 125.472 96.2064 125.579 96.6864 125.792C97.1664 125.995 97.5771 126.288 97.9184 126.672C98.2704 127.056 98.5424 127.52 98.7344 128.064C98.9264 128.597 99.0224 129.189 99.0224 129.84ZM97.4704 129.84C97.4704 128.901 97.2571 128.16 96.8304 127.616C96.4144 127.061 95.8438 126.784 95.1184 126.784C94.3931 126.784 93.8171 127.061 93.3904 127.616C92.9744 128.16 92.7664 128.901 92.7664 129.84C92.7664 130.779 92.9744 131.525 93.3904 132.08C93.8171 132.624 94.3931 132.896 95.1184 132.896C95.8438 132.896 96.4144 132.624 96.8304 132.08C97.2571 131.525 97.4704 130.779 97.4704 129.84ZM107.713 134C107.414 133.232 107.094 132.357 106.753 131.376C106.422 130.384 106.118 129.355 105.841 128.288C105.563 129.355 105.259 130.384 104.929 131.376C104.598 132.357 104.283 133.232 103.985 134H102.689C102.198 132.901 101.718 131.648 101.249 130.24C100.779 128.832 100.337 127.312 99.9208 125.68H101.521C101.627 126.181 101.755 126.725 101.905 127.312C102.054 127.899 102.209 128.485 102.369 129.072C102.539 129.659 102.715 130.224 102.897 130.768C103.078 131.312 103.249 131.787 103.409 132.192C103.59 131.691 103.766 131.163 103.937 130.608C104.118 130.043 104.289 129.477 104.449 128.912C104.609 128.336 104.758 127.776 104.897 127.232C105.046 126.677 105.174 126.16 105.281 125.68H106.513C106.609 126.16 106.726 126.677 106.865 127.232C107.003 127.776 107.153 128.336 107.313 128.912C107.473 129.477 107.638 130.043 107.809 130.608C107.99 131.163 108.171 131.691 108.353 132.192C108.513 131.787 108.678 131.312 108.849 130.768C109.03 130.224 109.206 129.659 109.377 129.072C109.547 128.485 109.707 127.899 109.857 127.312C110.006 126.725 110.134 126.181 110.241 125.68H111.777C111.361 127.312 110.918 128.832 110.449 130.24C109.979 131.648 109.499 132.901 109.009 134H107.713Z" fill="#212529"/>
<defs>
<clipPath id="clip0_3276_76351">
<rect width="96" height="96" fill="white" transform="translate(31.5 15)"/>
</clipPath>
</defs>
</svg>
