<svg width="159" height="159" viewBox="0 0 159 159" fill="none" xmlns="http://www.w3.org/2000/svg">
<rect width="159" height="159" rx="32" fill="white"/>
<path d="M49.3848 63.223C49.3848 75.2323 56.3639 85.6106 66.4842 90.5287L52.0115 50.8755C50.3281 54.6488 49.3848 58.8245 49.3848 63.223Z" fill="#21759B"/>
<path d="M100.207 61.6922C100.207 57.9425 98.8598 55.3458 97.7046 53.3246C96.1666 50.8254 94.7251 48.709 94.7251 46.2098C94.7251 43.4208 96.8403 40.8246 99.8198 40.8246C99.9544 40.8246 100.082 40.8414 100.213 40.8489C94.8151 35.9036 87.6236 32.8843 79.7248 32.8843C69.1253 32.8843 59.8 38.3226 54.375 46.5596C55.0868 46.581 55.7577 46.596 56.3275 46.596C59.501 46.596 64.4133 46.2109 64.4133 46.2109C66.0488 46.1145 66.2416 48.5167 64.6079 48.7101C64.6079 48.7101 62.9642 48.9035 61.1353 48.9994L72.1839 81.8629L78.8236 61.9496L74.0966 48.9982C72.4628 48.9024 70.915 48.709 70.915 48.709C69.28 48.6131 69.4717 46.1134 71.1067 46.2098C71.1067 46.2098 76.1171 46.5949 79.0984 46.5949C82.2713 46.5949 87.1842 46.2098 87.1842 46.2098C88.8209 46.1134 89.0131 48.5156 87.3788 48.709C87.3788 48.709 85.7317 48.9024 83.9062 48.9982L94.8706 81.6129L97.8968 71.5001C99.2085 67.3036 100.207 64.2895 100.207 61.6922Z" fill="#21759B"/>
<path d="M80.2574 65.877L71.1543 92.3288C73.8723 93.1278 76.7467 93.5648 79.7251 93.5648C83.2582 93.5648 86.6465 92.954 89.8003 91.845C89.7189 91.7151 89.645 91.5771 89.5844 91.427L80.2574 65.877Z" fill="#21759B"/>
<path d="M106.347 48.6665C106.477 49.6329 106.551 50.6704 106.551 51.7863C106.551 54.8651 105.976 58.3261 104.244 62.6536L94.9766 89.4484C103.996 84.1885 110.063 74.4164 110.063 63.2234C110.064 57.9485 108.717 52.9883 106.347 48.6665Z" fill="#21759B"/>
<path d="M79.7247 27.8569C60.2237 27.8569 44.3574 43.722 44.3574 63.2231C44.3574 82.7264 60.2237 98.5909 79.7247 98.5909C99.2252 98.5909 115.094 82.7264 115.094 63.2231C115.093 43.722 99.2252 27.8569 79.7247 27.8569ZM79.7247 96.9698C61.1179 96.9698 45.9791 81.831 45.9791 63.2231C45.9791 44.6163 61.1174 29.4786 79.7247 29.4786C98.3309 29.4786 113.469 44.6163 113.469 63.2231C113.469 81.831 98.3309 96.9698 79.7247 96.9698Z" fill="#21759B"/>
<path d="M47.6119 126.48C47.1639 127.909 46.7105 129.232 46.2519 130.448C45.7932 131.664 45.3345 132.848 44.8759 134H43.3239C42.7585 132.368 42.2572 130.645 41.8199 128.832C41.3932 127.019 40.9932 125.045 40.6199 122.912H42.2519C42.4012 123.744 42.5559 124.576 42.7159 125.408C42.8759 126.24 43.0412 127.051 43.2119 127.84C43.3825 128.619 43.5532 129.365 43.7239 130.08C43.8945 130.795 44.0705 131.456 44.2519 132.064C44.6785 130.944 45.1319 129.717 45.6119 128.384C46.0919 127.04 46.5399 125.653 46.9559 124.224H48.2999C48.7159 125.653 49.1692 127.04 49.6599 128.384C50.1505 129.717 50.6092 130.944 51.0359 132.064C51.2065 131.467 51.3772 130.811 51.5479 130.096C51.7185 129.381 51.8839 128.635 52.0439 127.856C52.2145 127.067 52.3799 126.256 52.5399 125.424C52.6999 124.581 52.8545 123.744 53.0039 122.912H54.5879C54.2039 125.045 53.7932 127.019 53.3559 128.832C52.9292 130.645 52.4385 132.368 51.8839 134H50.3319C49.8625 132.848 49.4039 131.664 48.9559 130.448C48.5079 129.232 48.0599 127.909 47.6119 126.48ZM63.2959 129.84C63.2959 130.501 63.1999 131.099 63.0079 131.632C62.8159 132.165 62.5439 132.624 62.1919 133.008C61.8505 133.392 61.4399 133.691 60.9599 133.904C60.4799 134.107 59.9572 134.208 59.3919 134.208C58.8265 134.208 58.3039 134.107 57.8239 133.904C57.3439 133.691 56.9279 133.392 56.5759 133.008C56.2345 132.624 55.9679 132.165 55.7759 131.632C55.5839 131.099 55.4879 130.501 55.4879 129.84C55.4879 129.189 55.5839 128.597 55.7759 128.064C55.9679 127.52 56.2345 127.056 56.5759 126.672C56.9279 126.288 57.3439 125.995 57.8239 125.792C58.3039 125.579 58.8265 125.472 59.3919 125.472C59.9572 125.472 60.4799 125.579 60.9599 125.792C61.4399 125.995 61.8505 126.288 62.1919 126.672C62.5439 127.056 62.8159 127.52 63.0079 128.064C63.1999 128.597 63.2959 129.189 63.2959 129.84ZM61.7439 129.84C61.7439 128.901 61.5305 128.16 61.1039 127.616C60.6879 127.061 60.1172 126.784 59.3919 126.784C58.6665 126.784 58.0905 127.061 57.6639 127.616C57.2479 128.16 57.0399 128.901 57.0399 129.84C57.0399 130.779 57.2479 131.525 57.6639 132.08C58.0905 132.624 58.6665 132.896 59.3919 132.896C60.1172 132.896 60.6879 132.624 61.1039 132.08C61.5305 131.525 61.7439 130.779 61.7439 129.84ZM68.4614 125.504C68.5894 125.504 68.7334 125.515 68.8934 125.536C69.064 125.547 69.2294 125.568 69.3894 125.6C69.5494 125.621 69.6934 125.648 69.8214 125.68C69.96 125.701 70.0614 125.723 70.1254 125.744L69.8694 127.04C69.752 126.997 69.5547 126.949 69.2774 126.896C69.0107 126.832 68.664 126.8 68.2374 126.8C67.96 126.8 67.6827 126.832 67.4054 126.896C67.1387 126.949 66.9627 126.987 66.8774 127.008V134H65.3894V126.032C65.7414 125.904 66.1787 125.787 66.7014 125.68C67.224 125.563 67.8107 125.504 68.4614 125.504ZM76.9373 127.44C76.7559 127.291 76.4946 127.147 76.1533 127.008C75.8119 126.869 75.4386 126.8 75.0333 126.8C74.6066 126.8 74.2386 126.88 73.9293 127.04C73.6306 127.189 73.3853 127.403 73.1933 127.68C73.0013 127.947 72.8626 128.267 72.7773 128.64C72.6919 129.013 72.6493 129.413 72.6493 129.84C72.6493 130.811 72.8893 131.563 73.3693 132.096C73.8493 132.619 74.4893 132.88 75.2893 132.88C75.6946 132.88 76.0306 132.864 76.2973 132.832C76.5746 132.789 76.7879 132.747 76.9373 132.704V127.44ZM76.9373 121.84L78.4253 121.584V133.76C78.0839 133.856 77.6466 133.952 77.1133 134.048C76.5799 134.144 75.9666 134.192 75.2733 134.192C74.6333 134.192 74.0573 134.091 73.5453 133.888C73.0333 133.685 72.5959 133.397 72.2333 133.024C71.8706 132.651 71.5879 132.197 71.3853 131.664C71.1933 131.12 71.0973 130.512 71.0973 129.84C71.0973 129.2 71.1773 128.613 71.3372 128.08C71.5079 127.547 71.7533 127.088 72.0733 126.704C72.3933 126.32 72.7826 126.021 73.2413 125.808C73.7106 125.595 74.2439 125.488 74.8413 125.488C75.3213 125.488 75.7426 125.552 76.1053 125.68C76.4786 125.808 76.7559 125.931 76.9373 126.048V121.84ZM84.0231 122.8C85.5805 122.8 86.7751 123.099 87.6071 123.696C88.4498 124.283 88.8711 125.163 88.8711 126.336C88.8711 126.976 88.7538 127.525 88.5191 127.984C88.2951 128.432 87.9645 128.8 87.5271 129.088C87.1005 129.365 86.5778 129.568 85.9591 129.696C85.3405 129.824 84.6418 129.888 83.8631 129.888H82.6311V134H81.0791V123.072C81.5165 122.965 82.0018 122.896 82.5351 122.864C83.0791 122.821 83.5751 122.8 84.0231 122.8ZM84.1511 124.16C83.4898 124.16 82.9831 124.176 82.6311 124.208V128.56H83.7991C84.3325 128.56 84.8125 128.528 85.2391 128.464C85.6658 128.389 86.0231 128.272 86.3111 128.112C86.6098 127.941 86.8391 127.712 86.9991 127.424C87.1591 127.136 87.2391 126.768 87.2391 126.32C87.2391 125.893 87.1538 125.541 86.9831 125.264C86.8231 124.987 86.5991 124.768 86.3111 124.608C86.0338 124.437 85.7085 124.32 85.3351 124.256C84.9618 124.192 84.5671 124.16 84.1511 124.16ZM93.7895 125.504C93.9175 125.504 94.0615 125.515 94.2215 125.536C94.3922 125.547 94.5575 125.568 94.7175 125.6C94.8775 125.621 95.0215 125.648 95.1495 125.68C95.2882 125.701 95.3895 125.723 95.4535 125.744L95.1975 127.04C95.0802 126.997 94.8828 126.949 94.6055 126.896C94.3388 126.832 93.9922 126.8 93.5655 126.8C93.2882 126.8 93.0108 126.832 92.7335 126.896C92.4668 126.949 92.2908 126.987 92.2055 127.008V134H90.7175V126.032C91.0695 125.904 91.5068 125.787 92.0295 125.68C92.5522 125.563 93.1388 125.504 93.7895 125.504ZM96.4254 129.856C96.4254 129.12 96.532 128.48 96.7454 127.936C96.9587 127.381 97.2414 126.923 97.5934 126.56C97.9454 126.197 98.3507 125.925 98.8094 125.744C99.268 125.563 99.7374 125.472 100.217 125.472C101.337 125.472 102.196 125.824 102.793 126.528C103.391 127.221 103.689 128.283 103.689 129.712C103.689 129.776 103.689 129.861 103.689 129.968C103.689 130.064 103.684 130.155 103.673 130.24H97.9774C98.0414 131.104 98.292 131.76 98.7294 132.208C99.1667 132.656 99.8494 132.88 100.777 132.88C101.3 132.88 101.737 132.837 102.089 132.752C102.452 132.656 102.724 132.565 102.905 132.48L103.113 133.728C102.932 133.824 102.612 133.925 102.153 134.032C101.705 134.139 101.193 134.192 100.617 134.192C99.892 134.192 99.2627 134.085 98.7294 133.872C98.2067 133.648 97.7747 133.344 97.4334 132.96C97.092 132.576 96.836 132.123 96.6654 131.6C96.5054 131.067 96.4254 130.485 96.4254 129.856ZM102.137 129.04C102.148 128.368 101.977 127.819 101.625 127.392C101.284 126.955 100.809 126.736 100.201 126.736C99.86 126.736 99.556 126.805 99.2894 126.944C99.0334 127.072 98.8147 127.243 98.6334 127.456C98.452 127.669 98.308 127.915 98.2014 128.192C98.1054 128.469 98.0414 128.752 98.0094 129.04H102.137ZM107.763 132.928C108.371 132.928 108.819 132.848 109.107 132.688C109.406 132.528 109.555 132.272 109.555 131.92C109.555 131.557 109.411 131.269 109.123 131.056C108.835 130.843 108.36 130.603 107.699 130.336C107.379 130.208 107.07 130.08 106.771 129.952C106.483 129.813 106.232 129.653 106.019 129.472C105.806 129.291 105.635 129.072 105.507 128.816C105.379 128.56 105.315 128.245 105.315 127.872C105.315 127.136 105.587 126.555 106.131 126.128C106.675 125.691 107.416 125.472 108.355 125.472C108.59 125.472 108.824 125.488 109.059 125.52C109.294 125.541 109.512 125.573 109.715 125.616C109.918 125.648 110.094 125.685 110.243 125.728C110.403 125.771 110.526 125.808 110.611 125.84L110.339 127.12C110.179 127.035 109.928 126.949 109.587 126.864C109.246 126.768 108.835 126.72 108.355 126.72C107.939 126.72 107.576 126.805 107.267 126.976C106.958 127.136 106.803 127.392 106.803 127.744C106.803 127.925 106.835 128.085 106.899 128.224C106.974 128.363 107.08 128.491 107.219 128.608C107.368 128.715 107.55 128.816 107.763 128.912C107.976 129.008 108.232 129.109 108.531 129.216C108.926 129.365 109.278 129.515 109.587 129.664C109.896 129.803 110.158 129.968 110.371 130.16C110.595 130.352 110.766 130.587 110.883 130.864C111 131.131 111.059 131.461 111.059 131.856C111.059 132.624 110.771 133.205 110.195 133.6C109.63 133.995 108.819 134.192 107.763 134.192C107.027 134.192 106.451 134.128 106.035 134C105.619 133.883 105.336 133.792 105.187 133.728L105.459 132.448C105.63 132.512 105.902 132.608 106.275 132.736C106.648 132.864 107.144 132.928 107.763 132.928ZM114.904 132.928C115.512 132.928 115.96 132.848 116.248 132.688C116.546 132.528 116.696 132.272 116.696 131.92C116.696 131.557 116.552 131.269 116.264 131.056C115.976 130.843 115.501 130.603 114.84 130.336C114.52 130.208 114.21 130.08 113.912 129.952C113.624 129.813 113.373 129.653 113.16 129.472C112.946 129.291 112.776 129.072 112.648 128.816C112.52 128.56 112.456 128.245 112.456 127.872C112.456 127.136 112.728 126.555 113.272 126.128C113.816 125.691 114.557 125.472 115.496 125.472C115.73 125.472 115.965 125.488 116.2 125.52C116.434 125.541 116.653 125.573 116.856 125.616C117.058 125.648 117.234 125.685 117.384 125.728C117.544 125.771 117.666 125.808 117.752 125.84L117.48 127.12C117.32 127.035 117.069 126.949 116.728 126.864C116.386 126.768 115.976 126.72 115.496 126.72C115.08 126.72 114.717 126.805 114.408 126.976C114.098 127.136 113.944 127.392 113.944 127.744C113.944 127.925 113.976 128.085 114.039 128.224C114.114 128.363 114.221 128.491 114.36 128.608C114.509 128.715 114.69 128.816 114.904 128.912C115.117 129.008 115.373 129.109 115.672 129.216C116.066 129.365 116.418 129.515 116.728 129.664C117.037 129.803 117.298 129.968 117.512 130.16C117.736 130.352 117.906 130.587 118.024 130.864C118.141 131.131 118.2 131.461 118.2 131.856C118.2 132.624 117.912 133.205 117.336 133.6C116.77 133.995 115.96 134.192 114.904 134.192C114.168 134.192 113.592 134.128 113.176 134C112.76 133.883 112.477 133.792 112.328 133.728L112.6 132.448C112.77 132.512 113.042 132.608 113.416 132.736C113.789 132.864 114.285 132.928 114.904 132.928Z" fill="#212529"/>
</svg>
