<svg width="40" height="41" viewBox="0 0 40 41" fill="none" xmlns="http://www.w3.org/2000/svg">
<rect y="0.5" width="40" height="40" rx="20" fill="#CFD2D6"/>
<path d="M24.7 16.5C24.2928 15.3446 23.2239 14.5528 22 14.5H18C16.3431 14.5 15 15.8431 15 17.5C15 19.1569 16.3431 20.5 18 20.5H22C23.6569 20.5 25 21.8431 25 23.5C25 25.1569 23.6569 26.5 22 26.5H18C16.7761 26.4472 15.7072 25.6554 15.3 24.5" stroke="#212529" stroke-width="1.5" stroke-linecap="round" stroke-linejoin="round"/>
<path d="M20.75 11.5C20.75 11.0858 20.4142 10.75 20 10.75C19.5858 10.75 19.25 11.0858 19.25 11.5H20.75ZM19.25 14.5C19.25 14.9142 19.5858 15.25 20 15.25C20.4142 15.25 20.75 14.9142 20.75 14.5H19.25ZM20.75 26.5C20.75 26.0858 20.4142 25.75 20 25.75C19.5858 25.75 19.25 26.0858 19.25 26.5H20.75ZM19.25 29.5C19.25 29.9142 19.5858 30.25 20 30.25C20.4142 30.25 20.75 29.9142 20.75 29.5H19.25ZM19.25 11.5V14.5H20.75V11.5H19.25ZM19.25 26.5V29.5H20.75V26.5H19.25Z" fill="#212529"/>
</svg>
