<svg width="196" height="33" viewBox="0 0 196 33" fill="none" xmlns="http://www.w3.org/2000/svg">
<g clip-path="url(#clip0_3830_81127)">
<path d="M60.7869 12.4008C59.7537 15.605 58.7084 18.5706 57.6482 21.2947C56.591 24.0217 55.5308 26.6759 54.4736 29.2573H50.8947C49.5889 25.599 48.4358 21.7371 47.4236 17.6714C46.4412 13.6057 45.5158 9.18198 44.6562 4.40034H48.4209C48.7653 6.26585 49.1217 8.13136 49.4901 9.99687C49.8584 11.8624 50.2418 13.6784 50.6341 15.4479C51.0265 17.1941 51.4218 18.8675 51.8141 20.4682C52.2065 22.0688 52.6138 23.5531 53.0331 24.9151C54.0154 22.4035 55.0636 19.6562 56.1717 16.6644C57.2799 13.6522 58.3131 10.544 59.2715 7.33976H62.3712C63.3296 10.544 64.3778 13.6522 65.5099 16.6644C66.642 19.6533 67.6992 22.4035 68.6845 24.9151C69.0769 23.5764 69.4722 22.1038 69.8646 20.5031C70.2569 18.9024 70.6402 17.2261 71.0086 15.4828C71.401 13.7133 71.7843 11.8973 72.1527 10.0318C72.5211 8.143 72.8775 6.26585 73.2219 4.40034H76.8757C75.9892 9.18198 75.0428 13.6057 74.0335 17.6714C73.0512 21.7371 71.9161 25.599 70.6372 29.2573H67.0583C65.9741 26.6759 64.9169 24.0217 63.8837 21.2947C62.8504 18.5677 61.8172 15.605 60.7839 12.4008H60.7869ZM78.9572 19.9676C78.9572 18.3174 79.2027 16.8827 79.6939 15.6632C80.1881 14.4205 80.838 13.3903 81.6496 12.5783C82.4612 11.7663 83.3986 11.1552 84.4558 10.7477C85.513 10.3403 86.5972 10.1366 87.7053 10.1366C90.29 10.1366 92.2696 10.9253 93.6473 12.5026C95.0249 14.0568 95.7138 16.4345 95.7138 19.6416V20.215C95.7138 20.4303 95.7018 20.6341 95.6778 20.8261H82.5361C82.6828 22.7644 83.2609 24.2341 84.2702 25.2382C85.2794 26.2422 86.8548 26.7457 88.9961 26.7457C90.2001 26.7457 91.2124 26.6497 92.024 26.4576C92.8596 26.2422 93.4885 26.0385 93.9078 25.8464L94.387 28.6432C93.9677 28.8586 93.231 29.0856 92.1738 29.3242C91.1405 29.5629 89.9575 29.6822 88.6308 29.6822C86.9566 29.6822 85.5071 29.4436 84.2761 28.9663C83.0722 28.4628 82.0749 27.7818 81.2872 26.9203C80.4995 26.0589 79.9095 25.0432 79.5142 23.8703C79.1458 22.6742 78.9601 21.3733 78.9601 19.9618L78.9572 19.9676ZM92.1348 18.137C92.1588 16.6295 91.7665 15.3984 90.9548 14.4438C90.1672 13.463 89.071 12.9741 87.6694 12.9741C86.8817 12.9741 86.1809 13.1313 85.567 13.4398C84.977 13.7279 84.4738 14.1091 84.0545 14.5864C83.6352 15.0666 83.3028 15.6138 83.0572 16.2366C82.8356 16.8594 82.6888 17.4909 82.614 18.137H92.1378H92.1348ZM104.079 11.4287C104.498 11.1639 105.124 10.8903 105.962 10.6051C106.825 10.317 107.807 10.1744 108.915 10.1744C110.293 10.1744 111.512 10.413 112.569 10.8903C113.653 11.3705 114.564 12.037 115.301 12.8984C116.037 13.7599 116.591 14.7872 116.963 15.9834C117.355 17.1795 117.553 18.495 117.553 19.9298C117.553 21.4373 117.319 22.7993 116.852 24.0187C116.409 25.2149 115.768 26.2306 114.932 27.0687C114.097 27.9069 113.087 28.553 111.904 29.007C110.724 29.461 109.395 29.688 107.918 29.688C106.319 29.688 104.905 29.5803 103.674 29.365C102.443 29.1496 101.434 28.9343 100.646 28.7189V1.99643L104.079 1.4231V11.4317V11.4287ZM104.079 26.3499C104.423 26.4459 104.902 26.542 105.519 26.638C106.16 26.7108 106.945 26.7457 107.882 26.7457C109.727 26.7457 111.204 26.1578 112.312 24.9879C113.42 23.7917 113.974 22.1067 113.974 19.9298C113.974 18.9752 113.875 18.0759 113.677 17.2406C113.48 16.4025 113.159 15.6865 112.719 15.0899C112.276 14.4671 111.698 13.9898 110.985 13.6551C110.296 13.2972 109.457 13.1167 108.475 13.1167C107.493 13.1167 106.678 13.2739 105.891 13.5824C105.103 13.8938 104.501 14.2168 104.082 14.5515V26.3528L104.079 26.3499ZM126.846 26.8534C128.248 26.8534 129.281 26.6729 129.946 26.315C130.635 25.957 130.979 25.3837 130.979 24.5921C130.979 23.8005 130.647 23.134 129.982 22.6538C129.317 22.1736 128.224 21.6381 126.696 21.0386C125.96 20.7505 125.244 20.4653 124.555 20.1771C123.89 19.8657 123.312 19.5078 122.821 19.1003C122.327 18.6929 121.934 18.2039 121.641 17.6306C121.344 17.0573 121.198 16.353 121.198 15.5148C121.198 13.8647 121.824 12.5609 123.078 11.6063C124.333 10.6255 126.043 10.1366 128.209 10.1366C128.748 10.1366 129.293 10.1715 129.832 10.2442C130.374 10.2937 130.877 10.3636 131.344 10.4596C131.812 10.5324 132.216 10.6168 132.563 10.7099C132.932 10.8059 133.213 10.8903 133.411 10.9602L132.785 13.8297C132.417 13.6377 131.839 13.4485 131.051 13.2564C130.263 13.0411 129.317 12.9334 128.209 12.9334C127.25 12.9334 126.412 13.1255 125.699 13.5067C124.983 13.8647 124.63 14.438 124.63 15.2296C124.63 15.637 124.705 15.995 124.851 16.3064C125.022 16.6178 125.271 16.903 125.588 17.1679C125.933 17.4065 126.352 17.6335 126.843 17.8489C127.334 18.0642 127.927 18.2913 128.616 18.5299C129.527 18.8646 130.338 19.1993 131.051 19.534C131.767 19.8454 132.366 20.215 132.86 20.6457C133.378 21.0764 133.77 21.6003 134.04 22.2231C134.312 22.8197 134.447 23.5618 134.447 24.4466C134.447 26.1695 133.782 27.4733 132.456 28.3551C131.15 29.2398 129.281 29.6822 126.846 29.6822C125.148 29.6822 123.818 29.5396 122.86 29.2515C121.901 28.9866 121.249 28.7858 120.904 28.6403L121.533 25.7707C121.925 25.9134 122.554 26.1287 123.414 26.4168C124.276 26.705 125.42 26.8476 126.846 26.8476V26.8534ZM142.063 10.6051H149.335V13.4019H142.063V22.0106C142.063 22.9419 142.138 23.719 142.285 24.3418C142.432 24.9384 142.653 25.4186 142.95 25.7766C143.246 26.1113 143.615 26.3499 144.058 26.4925C144.501 26.6351 145.016 26.7079 145.609 26.7079C146.643 26.7079 147.469 26.6002 148.083 26.3848C148.724 26.1462 149.167 25.9774 149.413 25.8813L150.078 28.6432C149.733 28.8091 149.131 29.0157 148.269 29.2544C147.406 29.5192 146.424 29.6502 145.316 29.6502C144.01 29.6502 142.929 29.493 142.066 29.1845C141.231 28.8499 140.554 28.3609 140.036 27.7148C139.518 27.0687 139.149 26.2801 138.928 25.3488C138.73 24.3942 138.631 23.2912 138.631 22.0485V5.4044L142.063 4.83107V10.6051ZM157.137 29.2573H153.705V10.6051H157.137V29.2573ZM155.403 7.23498C154.789 7.23498 154.259 7.0429 153.815 6.66165C153.396 6.25421 153.189 5.7158 153.189 5.04643C153.189 4.37706 153.399 3.85029 153.815 3.46904C154.259 3.0616 154.789 2.85788 155.403 2.85788C156.017 2.85788 156.535 3.0616 156.954 3.46904C157.397 3.85029 157.619 4.37706 157.619 5.04643C157.619 5.7158 157.397 6.25421 156.954 6.66165C156.535 7.0429 156.02 7.23498 155.403 7.23498ZM171.384 29.688C169.832 29.688 168.467 29.4494 167.287 28.9721C166.131 28.4919 165.145 27.8254 164.334 26.964C163.546 26.1025 162.956 25.0868 162.561 23.914C162.168 22.7178 161.971 21.4024 161.971 19.9676C161.971 18.5328 162.18 17.2173 162.599 16.0212C163.043 14.8251 163.657 13.7977 164.444 12.9363C165.232 12.0515 166.193 11.3705 167.322 10.8932C168.479 10.3898 169.757 10.1395 171.162 10.1395C172.025 10.1395 172.884 10.2122 173.747 10.3548C174.609 10.4974 175.433 10.7274 176.22 11.0358L175.445 13.8705C174.927 13.6318 174.325 13.4398 173.636 13.2972C172.971 13.1546 172.258 13.0818 171.494 13.0818C169.575 13.0818 168.098 13.6697 167.065 14.8396C166.056 16.0096 165.552 17.7208 165.552 19.9676C165.552 20.9716 165.663 21.8913 165.885 22.7295C166.131 23.5676 166.499 24.2836 166.993 24.8802C167.511 25.4768 168.161 25.9425 168.949 26.2801C169.736 26.5915 170.698 26.7457 171.827 26.7457C172.737 26.7457 173.561 26.6613 174.301 26.4954C175.037 26.3295 175.615 26.1491 176.035 25.957L176.514 28.7538C176.316 28.8731 176.035 28.9925 175.666 29.1118C175.298 29.2078 174.879 29.2922 174.411 29.3621C173.944 29.4581 173.438 29.528 172.899 29.5774C172.381 29.6502 171.878 29.6851 171.387 29.6851L171.384 29.688ZM187.14 18.9985C187.877 19.5485 188.652 20.2295 189.464 21.0415C190.3 21.8535 191.111 22.7411 191.899 23.6957C192.71 24.627 193.474 25.5845 194.187 26.5653C194.9 27.5198 195.502 28.4191 195.996 29.2544H191.974C191.456 28.4162 190.854 27.5693 190.165 26.7079C189.5 25.8231 188.799 24.985 188.059 24.1963C187.323 23.3843 186.571 22.6422 185.807 21.9728C185.043 21.3034 184.319 20.7417 183.63 20.2877V29.2544H180.198V1.99643L183.63 1.4231V18.4251C184.22 17.8518 184.873 17.2173 185.586 16.5247C186.301 15.832 187.002 15.1248 187.688 14.4089C188.377 13.693 189.03 13.009 189.644 12.3659C190.258 11.6965 190.788 11.1115 191.231 10.608H195.253C194.687 11.2046 194.073 11.8624 193.408 12.5812C192.743 13.2972 192.055 14.0276 191.342 14.7698C190.629 15.4857 189.901 16.2162 189.164 16.9583C188.452 17.6743 187.775 18.3582 187.134 19.0043L187.14 18.9985Z" fill="#212529"/>
<path d="M7.086 0H0V6.99929C0 9.41194 1.25787 11.5627 3.15965 12.8461C1.64122 13.8647 0.386346 15.4421 0 17.2698H2.68046C3.29442 15.4305 5.21417 14.1092 7.31361 14.1092H11.9168V17.2698H14.5044V7.20884C14.5044 3.23917 11.1801 0 7.086 0ZM11.9078 11.583H7.30463C4.70503 11.583 2.58762 9.52253 2.58762 6.99929V2.51451H7.086C9.74549 2.51451 11.9078 4.61575 11.9078 7.20011V11.583ZM33.9595 6.8887V0H26.7477C24.2649 0 22.0516 1.22233 20.7309 3.07038C19.6827 1.59485 18.0624 0.37252 16.1786 0V2.60473C18.0714 3.20134 19.4311 5.06976 19.4311 7.10698V11.5801H16.1786V14.0946H26.5171C30.6022 14.0946 33.9595 10.8642 33.9595 6.88579V6.8887ZM22.0307 11.583V7.10989C22.0307 4.58374 24.1511 2.52615 26.7477 2.52615H31.3509V6.89743C31.3509 9.48179 29.1886 11.583 26.5291 11.583H22.0307ZM26.8525 33H33.9595V26.0007C33.9595 23.5881 32.6806 21.4373 30.7789 20.1539C32.2973 19.1324 33.5731 17.5579 33.9595 15.7302H31.279C30.6651 17.5695 28.7243 18.8908 26.6249 18.8908H22.0217V15.7302H19.4341V25.7766C19.4341 29.7463 22.7584 32.9854 26.8525 32.9854V32.9971V33ZM22.0307 21.417H26.6339C29.2335 21.417 31.3509 23.4775 31.3509 26.0007V30.4739H26.8525C24.193 30.4739 22.0307 28.3726 22.0307 25.7883V21.417ZM0 26.1113V32.9971H7.2028C9.68559 32.9971 11.8988 31.7748 13.2196 29.9267C14.2708 31.4022 15.8911 32.6217 17.7719 32.9942V30.3895C15.8791 29.7928 14.5194 27.9244 14.5194 25.8872V21.4141H17.7719V18.8995H7.41843C3.33335 18.8995 0 22.1329 0 26.1113ZM11.9198 21.4257V25.8988C11.9198 28.425 9.7994 30.4826 7.2028 30.4826H2.58762V26.1113C2.58762 23.5269 4.74995 21.4257 7.40945 21.4257H11.9198Z" fill="#212529"/>
</g>
<defs>
<clipPath id="clip0_3830_81127">
<rect width="196" height="33" fill="white"/>
</clipPath>
</defs>
</svg>
