<svg width="56" height="56" viewBox="0 0 56 56" fill="none" xmlns="http://www.w3.org/2000/svg">
<rect width="56" height="56" rx="28" fill="#343A40"/>
<path d="M21.2552 18.668C21.2549 19.3752 20.9736 20.0534 20.4732 20.5532C19.9729 21.0531 19.2945 21.3337 18.5872 21.3333C17.88 21.333 17.2018 21.0517 16.702 20.5513C16.2021 20.051 15.9215 19.3726 15.9219 18.6653C15.9222 17.9581 16.2035 17.28 16.7039 16.7801C17.2042 16.2803 17.8826 15.9996 18.5899 16C19.2971 16.0004 19.9753 16.2816 20.4751 16.782C20.975 17.2823 21.2556 17.9608 21.2552 18.668ZM21.3352 23.308H16.0019V40.0013H21.3352V23.308ZM29.7619 23.308H24.4552V40.0013H29.7085V31.2413C29.7085 26.3613 36.0685 25.908 36.0685 31.2413V40.0013H41.3352V29.428C41.3352 21.2013 31.9219 21.508 29.7085 25.548L29.7619 23.308Z" fill="white"/>
</svg>
