<svg width="56" height="56" viewBox="0 0 56 56" fill="none" xmlns="http://www.w3.org/2000/svg">
<rect width="56" height="56" rx="28" fill="#343A40"/>
<path d="M22.3974 14.668H33.5974C37.8641 14.668 41.3307 18.1346 41.3307 22.4013V33.6013C41.3307 35.6523 40.516 37.6193 39.0657 39.0696C37.6154 40.5199 35.6484 41.3346 33.5974 41.3346H22.3974C18.1307 41.3346 14.6641 37.868 14.6641 33.6013V22.4013C14.6641 20.3503 15.4788 18.3833 16.9291 16.933C18.3794 15.4827 20.3464 14.668 22.3974 14.668ZM22.1307 17.3346C20.8577 17.3346 19.6368 17.8403 18.7366 18.7405C17.8364 19.6407 17.3307 20.8616 17.3307 22.1346V33.868C17.3307 36.5213 19.4774 38.668 22.1307 38.668H33.8641C35.1371 38.668 36.358 38.1623 37.2582 37.2621C38.1583 36.3619 38.6641 35.141 38.6641 33.868V22.1346C38.6641 19.4813 36.5174 17.3346 33.8641 17.3346H22.1307ZM34.9974 19.3346C35.4394 19.3346 35.8633 19.5102 36.1759 19.8228C36.4885 20.1354 36.6641 20.5593 36.6641 21.0013C36.6641 21.4433 36.4885 21.8673 36.1759 22.1798C35.8633 22.4924 35.4394 22.668 34.9974 22.668C34.5554 22.668 34.1314 22.4924 33.8189 22.1798C33.5063 21.8673 33.3307 21.4433 33.3307 21.0013C33.3307 20.5593 33.5063 20.1354 33.8189 19.8228C34.1314 19.5102 34.5554 19.3346 34.9974 19.3346ZM27.9974 21.3346C29.7655 21.3346 31.4612 22.037 32.7114 23.2873C33.9617 24.5375 34.6641 26.2332 34.6641 28.0013C34.6641 29.7694 33.9617 31.4651 32.7114 32.7153C31.4612 33.9656 29.7655 34.668 27.9974 34.668C26.2293 34.668 24.5336 33.9656 23.2833 32.7153C22.0331 31.4651 21.3307 29.7694 21.3307 28.0013C21.3307 26.2332 22.0331 24.5375 23.2833 23.2873C24.5336 22.037 26.2293 21.3346 27.9974 21.3346ZM27.9974 24.0013C26.9365 24.0013 25.9191 24.4227 25.169 25.1729C24.4188 25.923 23.9974 26.9404 23.9974 28.0013C23.9974 29.0622 24.4188 30.0796 25.169 30.8297C25.9191 31.5799 26.9365 32.0013 27.9974 32.0013C29.0583 32.0013 30.0757 31.5799 30.8258 30.8297C31.576 30.0796 31.9974 29.0622 31.9974 28.0013C31.9974 26.9404 31.576 25.923 30.8258 25.1729C30.0757 24.4227 29.0583 24.0013 27.9974 24.0013Z" fill="white"/>
</svg>
